<?xml version="1.0" encoding="UTF-8" standalone="no"?>
<svg
   xmlns:dc="http://purl.org/dc/elements/1.1/"
   xmlns:cc="http://creativecommons.org/ns#"
   xmlns:rdf="http://www.w3.org/1999/02/22-rdf-syntax-ns#"
   xmlns:svg="http://www.w3.org/2000/svg"
   xmlns="http://www.w3.org/2000/svg"
   viewBox="0 0 1511.8134 768"
   height="768"
   width="1511.8134"
   xml:space="preserve"
   id="svg2"
   version="1.1"><metadata
     id="metadata8"><rdf:RDF><cc:Work
         rdf:about=""><dc:format>image/svg+xml</dc:format><dc:type
           rdf:resource="http://purl.org/dc/dcmitype/StillImage" /></cc:Work></rdf:RDF></metadata><defs
     id="defs6"><clipPath
       id="clipPath18"
       clipPathUnits="userSpaceOnUse"><path
         id="path16"
         d="M 0,576 H 1133.858 V 0 H 0 Z" /></clipPath></defs><g
     transform="matrix(1.3333333,0,0,-1.3333333,0,768)"
     id="g10"><g
       id="g12"><g
         clip-path="url(#clipPath18)"
         id="g14"><g
           transform="translate(83.127,271.0137)"
           id="g20"><path
             id="path22"
             style="fill:#e9a70b;fill-opacity:1;fill-rule:nonzero;stroke:none"
             d="m 0,0 c -3.289,3.121 -6.398,6.611 -8.008,10.85 -1.22,3.211 -1.444,7.051 0.474,9.901 1.428,2.123 3.819,3.389 6.212,4.297 7.193,2.729 15.71,2.26 23.025,-0.124 4.091,-9.602 8.183,-19.204 12.274,-28.807 2.681,-6.293 5.432,-12.699 9.913,-17.868 C 27.695,-18.718 11.951,-11.343 0,0 m 292.092,54.64 c -8.655,7.218 -11.394,12.967 -22.259,15.498 -5.535,1.289 -12.244,2.054 -17.862,2.874 -4.398,0.642 -14.137,1.671 -18.469,2.353 -26.54,4.178 -55.896,2.922 -82.696,2.755 C 116.936,77.908 83.078,75.715 49.464,71.545 41.028,70.498 32.092,69.104 25.652,63.554 18.707,57.569 16.115,47.04 19.488,38.514 c 0.09,-0.227 -0.028,-0.482 -0.114,-0.71 -0.086,-0.23 -0.267,-0.436 -0.504,-0.493 -0.238,-0.058 -0.536,0.185 -0.597,0.421 -7.854,6.999 -18.553,11.137 -28.991,9.825 -10.437,-1.312 -20.24,-8.597 -23.277,-18.669 -3.236,-10.735 1.434,-22.563 8.909,-30.919 7.474,-8.357 17.423,-14.001 26.979,-19.866 9.555,-5.865 19.158,-12.354 25.292,-21.739 2.736,-4.186 5.226,-9.286 10.034,-10.663 4.693,-1.344 9.744,1.738 12.263,5.92 2.518,4.182 3.093,9.211 3.611,14.066 13.84,-11.801 26.008,-24.793 39.847,-36.594 2.579,-2.199 5.325,-4.682 5.879,-8.025 0.325,-1.96 -0.161,-3.998 0.255,-5.94 0.417,-1.941 2.409,-3.836 4.22,-3.022 34.307,-4.948 67.958,-6.522 102.581,-4.892 18.676,0.879 37.637,2.797 54.901,9.974 17.264,7.177 32.821,20.319 39.077,37.937 4.07,11.463 6.787,23.84 8.806,35.835 3.826,22.722 2.511,47.767 -16.567,63.68" /></g><g
           transform="translate(49.8442,298.666)"
           id="g24"><path
             id="path26"
             style="fill:#e0c594;fill-opacity:1;fill-rule:nonzero;stroke:none"
             d="m 0,0 c 4.4,8.094 11.173,15.836 21.025,16.194 2.538,0.092 6.127,-1.08 8.425,-0.077 -0.441,-0.192 -0.06,0.408 -0.052,0.361 -0.038,0.221 -0.473,1.226 -1.026,1.793 -0.581,0.596 -1.037,1.221 -1.403,1.86 -1.468,0.024 -2.938,-0.042 -4.404,-0.227 C 12.127,18.592 2.324,11.308 -0.712,1.235 -1.146,-0.203 -1.428,-1.661 -1.59,-3.128 -1.083,-2.071 -0.557,-1.025 0,0" /></g><g
           transform="translate(133.4038,340.2241)"
           id="g28"><path
             id="path30"
             style="fill:#e0c594;fill-opacity:1;fill-rule:nonzero;stroke:none"
             d="m 0,0 c 9.319,1.959 18.866,3.107 28.354,3.828 18.028,1.37 36.149,0.063 54.15,1.914 9.069,0.933 18.071,2.466 27.169,3.123 0.916,0.066 1.833,0.118 2.75,0.167 C 108.417,8.981 104.443,8.934 100.529,8.909 66.659,8.698 32.801,6.505 -0.812,2.334 c -8.437,-1.046 -17.373,-2.44 -23.813,-7.99 -0.265,-0.229 -0.5,-0.487 -0.75,-0.728 C -16.779,-4.871 -8.552,-1.798 0,0" /></g><g
           transform="translate(326.6528,310.3281)"
           id="g32"><path
             id="path34"
             style="fill:#e0c594;fill-opacity:1;fill-rule:nonzero;stroke:none"
             d="M 0,0 C -0.071,0.651 -0.158,1.42 -0.198,1.82 -0.298,2.223 -0.515,3.204 -0.666,3.856 -0.71,3.867 -0.754,3.879 -0.799,3.89 -1.241,3.995 -1.694,4.038 -2.141,4.113 -5.513,4.352 -8.899,4.44 -12.275,4.606 -28.2,5.391 -44.11,4.866 -60.018,5.583 c -2.904,0.131 -5.791,0.263 -8.67,0.356 -0.036,-0.026 -0.066,-0.056 -0.103,-0.082 -9.445,-6.787 -20.495,-9.731 -31.602,-12.393 11.508,0.77 23.019,1.476 34.545,1.932 16.171,0.64 32.673,-0.285 48.759,1.608 C -11.338,-2.319 -5.666,-1.168 0,0" /></g><g
           transform="translate(216.8584,218.4492)"
           id="g36"><path
             id="path38"
             style="fill:#e0c594;fill-opacity:1;fill-rule:nonzero;stroke:none"
             d="m 0,0 c 28.561,-10.247 58.517,-12.594 88.627,-13.232 4.943,1.756 9.831,4.355 13.352,7.97 2.451,11.184 -0.837,22.238 -8.007,31.227 -7.609,9.538 -20.677,15.404 -25.865,26.714 -1.478,3.221 -1.926,6.729 -1.633,10.249 0.202,2.42 1.621,6.38 0.866,8.819 -0.984,3.179 -6.827,3.681 -9.745,4.755 C 52.283,76.523 47,77.106 41.698,77.669 34.688,78.412 27.755,78.601 20.714,78.741 7.483,79.005 -6.151,80.006 -19.192,77.223 -27.896,75.365 -32.6,71.487 -34.922,62.763 -37.061,54.732 -37.279,45.576 -35.385,37.49 -31.148,19.41 -17.149,6.152 0,0" /></g><g
           transform="translate(83.127,271.0137)"
           id="g40"><path
             id="path42"
             style="fill:#815a05;fill-opacity:1;fill-rule:nonzero;stroke:none"
             d="m 0,0 c -3.289,3.121 -6.398,6.611 -8.008,10.85 -1.22,3.211 -1.444,7.051 0.474,9.901 1.428,2.123 3.819,3.389 6.212,4.297 7.193,2.729 15.71,2.26 23.025,-0.124 4.091,-9.602 8.183,-19.204 12.274,-28.807 2.681,-6.293 5.432,-12.699 9.913,-17.868 C 27.695,-18.718 11.951,-11.343 0,0 m 292.092,54.64 c -8.655,7.218 -11.394,12.967 -22.259,15.498 -5.535,1.289 -12.244,2.054 -17.862,2.874 -0.635,0.093 -1.391,0.195 -2.217,0.301 -0.846,-2.242 -3.378,-2.606 -4.995,-1.688 -0.447,-0.109 -1.998,0.291 -2.595,0.33 -1.267,0.084 -2.525,0.203 -3.789,0.318 -3.565,0.328 -7.091,0.421 -10.662,0.531 -8.72,0.268 -17.428,0.78 -26.156,0.981 -18.5,0.427 -36.845,0.215 -55.317,-1.042 -18.371,-1.25 -36.787,-2.651 -55.115,-4.4 C 75.115,66.816 59.188,64.551 43.207,62.768 37.781,60.845 31.648,60.521 26.232,58.6 c -2.07,-0.734 -4.098,-1.564 -6.08,-2.483 -2.505,-5.489 -2.89,-11.978 -0.664,-17.603 0.09,-0.227 -0.028,-0.482 -0.114,-0.71 -0.086,-0.23 -0.267,-0.436 -0.504,-0.493 -0.238,-0.058 -0.536,0.185 -0.597,0.421 -4.098,3.653 -8.974,6.514 -14.179,8.24 C 4.025,45.916 3.956,45.86 3.887,45.805 4.749,44.904 4.969,43.73 4.725,42.601 7.27,40.212 6.62,35.053 2.387,35.424 c -7.292,0.639 -15.394,3.968 -22.314,0.284 -4.493,-2.392 -7.284,-7.127 -9.095,-11.718 -1.79,-4.537 -2.866,-9.34 -3.511,-14.223 1.771,-4.308 4.364,-8.351 7.447,-11.798 7.474,-8.357 17.423,-14.001 26.979,-19.866 9.555,-5.865 19.158,-12.354 25.292,-21.739 2.736,-4.186 5.226,-9.286 10.034,-10.663 4.693,-1.344 9.744,1.738 12.263,5.92 2.518,4.182 3.093,9.211 3.611,14.066 13.84,-11.801 26.008,-24.793 39.847,-36.594 2.579,-2.199 5.325,-4.682 5.879,-8.025 0.325,-1.96 -0.161,-3.998 0.255,-5.94 0.417,-1.941 2.409,-3.836 4.22,-3.022 3.638,-0.524 7.28,-1.012 10.927,-1.464 20.049,-2.482 40.234,-3.83 60.434,-4.023 9.75,-0.093 19.552,0.554 29.272,0.318 4.045,-0.099 7.801,0.297 11.552,1.947 1.88,0.826 3.658,1.888 5.267,3.166 0.613,0.487 3.15,3.666 3.678,3.674 -24.483,-0.363 -48.935,-1.081 -73.369,0.567 -13.289,0.896 -27.034,2.7 -39.179,8.517 -9.874,4.727 -18.079,12.601 -24.162,21.616 -5.878,8.708 -9.956,18.818 -12.68,28.931 -2.747,10.197 -5.571,21.874 -3.541,32.444 5.445,28.36 41.594,22.669 62.586,27.266 25.51,5.587 50.713,14.499 77.144,9.907 0.908,-0.159 1.76,-0.44 2.547,-0.824 5.302,7.569 11.649,14.354 19.513,18.956 12.722,7.444 24.951,-11.901 12.236,-19.34 -10.18,-5.957 -17.261,-18.601 -22.915,-30.139 -4.055,-8.277 -8.055,-17.009 -11.338,-25.895 17.088,2.258 34.389,4.43 51.034,-1.001 5.4,-1.761 10.606,-7.605 8.48,-13.785 -2.435,-7.079 -3.718,-14.522 -4.052,-21.993 -0.246,-5.496 2.597,-11.468 -1.715,-15.983 -2.125,-2.226 -5.013,-3.528 -7.824,-4.778 l -23.32,-10.365 c 7.208,-0.76 14.46,-1.52 21.692,-1.032 20.679,1.394 37.502,17.211 44.292,36.332 4.07,11.463 6.787,23.84 8.806,35.835 3.826,22.722 2.511,47.767 -16.567,63.68" /></g><g
           transform="translate(83.127,271.0137)"
           id="g44"><path
             id="path46"
             style="fill:#4e3302;fill-opacity:1;fill-rule:nonzero;stroke:none"
             d="m 0,0 c -3.289,3.121 -6.398,6.611 -8.008,10.85 -1.22,3.211 -1.444,7.051 0.474,9.901 1.428,2.123 3.819,3.389 6.212,4.297 7.193,2.729 15.71,2.26 23.025,-0.124 4.091,-9.602 8.183,-19.204 12.274,-28.807 2.681,-6.293 5.432,-12.699 9.913,-17.868 C 27.695,-18.718 11.951,-11.343 0,0 m 225.071,-88.426 c -8.78,-1.704 -18.086,-1.433 -26.849,-1.049 -14.193,0.624 -28.364,1.589 -42.563,2.106 -11.728,0.428 -23.135,0.704 -34.329,4.607 -10.693,3.73 -20.405,9.136 -29.378,16.031 -5.702,4.38 -11.112,9.48 -15.92,15.133 -8.898,7.135 -16.424,16.155 -22.472,25.584 -9.823,15.315 -16.879,33.436 -17.123,51.801 -0.046,3.439 2.438,5.541 5.602,6.012 4.121,0.611 8.218,0.668 12.305,0.454 6.185,1.153 12.677,1.304 18.842,1.264 1.99,-0.013 4.029,-0.036 6.087,-0.103 2.236,0.82 4.573,1.452 6.996,1.929 -9.333,0.593 -18.648,1.573 -27.996,2.131 -7.316,0.436 -14.712,1.062 -21.811,2.984 -4.603,1.247 -11.789,2.996 -13.747,8.051 -3.443,8.887 10.552,11.502 16.181,12.61 6.704,1.32 13.447,2.482 20.207,3.54 C 53.807,64.005 48.51,63.359 43.207,62.768 37.781,60.845 31.648,60.521 26.232,58.6 c -2.07,-0.734 -4.098,-1.564 -6.08,-2.483 -2.505,-5.489 -2.89,-11.978 -0.664,-17.603 0.09,-0.227 -0.028,-0.482 -0.114,-0.71 -0.086,-0.23 -0.267,-0.436 -0.504,-0.493 -0.238,-0.058 -0.536,0.185 -0.597,0.421 -1.489,1.328 -3.084,2.546 -4.756,3.648 0.306,-1.861 0.07,-3.793 -1,-5.73 -2.361,-4.271 -7.518,-6.309 -11.906,-7.737 -6.774,-2.204 -17.601,-2.97 -16.538,-12.595 1.06,-9.601 9.031,-18.705 15.484,-25.32 7.244,-7.425 15.694,-11.753 24.743,-16.677 2.044,-1.112 4.156,-2.264 6.273,-3.471 4.646,-1.911 8.926,-4.916 12.794,-8.559 2.705,-2.243 5.169,-4.713 7.213,-7.486 1.595,3.691 2.082,7.843 2.513,11.882 13.84,-11.801 26.008,-24.793 39.847,-36.594 2.579,-2.199 5.325,-4.682 5.879,-8.025 0.234,-1.411 0.051,-2.862 0.083,-4.289 4.729,-1.134 9.485,-2.151 14.275,-3.003 13.205,-2.349 26.686,-2.893 40.063,-3.529 13.575,-0.644 27.084,-0.193 40.656,-0.301 10.271,-0.081 21.079,-0.851 31.204,1.404 -0.012,0.074 -0.017,0.15 -0.029,0.224" /></g><g
           transform="translate(375.5483,325.3652)"
           id="g48"><path
             id="path50"
             style="fill:#4e3302;fill-opacity:1;fill-rule:nonzero;stroke:none"
             d="m 0,0 c -0.778,0.17 -1.557,0.528 -2.296,1.13 -7.12,5.796 -17.254,7.444 -26.09,8.595 -9.427,1.228 -18.946,1.325 -28.432,1.652 -24.46,0.842 -48.705,-0.838 -73.102,-2.272 -24.247,-1.426 -48.494,-2.606 -72.649,-5.261 -11.686,-1.285 -23.338,-2.991 -34.944,-4.869 -4.909,-0.794 -9.919,-1.528 -14.793,-2.642 1.18,-0.416 2.337,-0.797 3.407,-1.008 2.904,-0.572 5.841,-0.978 8.788,-1.248 5.596,-0.514 11.22,-0.639 16.826,-1 11.904,-0.765 23.488,-2.325 35.461,-1.952 4.685,0.145 6.315,-4.814 4.659,-7.987 11.994,0.589 24.044,0.578 36.067,0.205 21.708,5.289 43.357,11.194 65.899,7.277 0.909,-0.158 1.761,-0.439 2.548,-0.823 5.302,7.569 11.649,14.354 19.512,18.955 10.407,6.089 20.474,-5.743 16.84,-14.325 3.639,-1.884 5.299,-7.432 0.732,-9.969 -9.849,-5.473 -14.978,-16.1 -20.207,-25.586 -2.205,-3.998 -4.226,-8.05 -6.108,-12.153 8.83,0.525 17.821,0.751 26.562,-0.286 3.882,0.294 7.887,0.466 11.446,-0.158 6.112,0.658 13.166,0.658 18.487,-2.593 6.428,-3.927 7.114,-11.551 6.6,-18.345 -0.88,-11.659 -2.409,-23.431 -4.546,-35.04 -0.419,-4.715 -0.788,-9.479 -0.62,-14.163 7.749,6.711 13.962,15.001 17.384,24.639 4.07,11.463 6.787,23.84 8.807,35.835 C 20.041,-40.805 18.756,-15.927 0,0" /></g><g
           transform="translate(104.8662,246.5078)"
           id="g52"><path
             id="path54"
             style="fill:#4e3302;fill-opacity:1;fill-rule:nonzero;stroke:none"
             d="m 0,0 c 0.729,-0.996 1.433,-2.011 2.076,-3.074 2.588,-4.28 4.896,-9.465 9.653,-11.01 1.555,-0.505 3.167,-0.503 4.724,-0.139 C 12.047,-7.951 6.493,-2.406 0,0" /></g><g
           transform="translate(367.9834,324.1953)"
           id="g56"><path
             id="path58"
             style="fill:#2f140a;fill-opacity:1;fill-rule:nonzero;stroke:none"
             d="m 0,0 c 0.057,-8.187 -58.876,-15.229 -131.63,-15.73 -72.754,-0.5 -131.778,5.731 -131.834,13.918 -0.057,8.187 58.876,15.229 131.63,15.73 C -59.08,14.418 -0.056,8.188 0,0" /></g><g
           transform="translate(195.8848,454.6646)"
           id="g60"><path
             id="path62"
             style="fill:#ffffff;fill-opacity:1;fill-rule:nonzero;stroke:none"
             d="m 0,0 c -0.181,1.568 -1.648,2.68 -3.2,2.393 -12.196,-2.261 -23.299,-9.703 -29.868,-20.281 -3.535,-5.669 -5.745,-11.997 -7.04,-18.372 -1.3,-6.388 -1.728,-12.863 -1.701,-19.253 0.059,-12.771 1.729,-25.217 1.283,-37.426 -0.223,-6.077 -0.998,-12.116 -2.641,-17.853 -1.394,-4.881 -3.452,-9.537 -6.285,-13.613 -0.829,-1.193 -0.618,-2.817 0.516,-3.725 l 0.219,-0.176 c 1.231,-0.986 3.056,-0.744 3.957,0.552 3.27,4.707 5.577,9.994 7.105,15.384 1.794,6.318 2.597,12.799 2.823,19.229 0.426,12.863 -1.29,25.371 -1.352,37.655 -0.039,6.126 0.365,12.217 1.552,18.113 1.184,5.884 3.183,11.567 6.279,16.552 5.671,9.216 15.475,15.812 26.108,17.814 C -0.821,-2.739 0.166,-1.439 0,0" /></g><g
           transform="translate(199.7153,440.0269)"
           id="g64"><path
             id="path66"
             style="fill:#ffffff;fill-opacity:1;fill-rule:nonzero;stroke:none"
             d="m 0,0 c 1.979,1.135 4.711,1.318 7.239,0.56 4.484,-1.232 7.883,-5.243 9.752,-10.05 0.504,-1.298 1.93,-1.982 3.272,-1.608 l 1.148,0.321 c 1.559,0.434 2.402,2.116 1.827,3.629 -0.994,2.611 -2.354,5.127 -4.179,7.395 C 17.816,1.791 16.368,3.181 14.682,4.371 12.993,5.538 11.138,6.447 9.157,7.035 5.227,8.211 0.646,8.136 -3.333,5.923 -5.268,4.834 -6.915,3.341 -8.191,1.543 c -1.262,-1.798 -2.184,-3.92 -2.454,-6.245 -0.15,-1.146 -0.113,-2.37 0.077,-3.505 0.187,-1.133 0.52,-2.195 0.917,-3.163 0.798,-1.941 1.818,-3.543 2.729,-4.989 1.754,-2.813 3.396,-5.584 4.816,-8.536 1.438,-2.924 2.744,-5.919 3.833,-8.994 1.114,-3.064 2.067,-6.19 2.816,-9.363 3.081,-12.684 3.303,-26.014 0.539,-38.748 -2.549,-11.875 -7.569,-23.233 -14.671,-33.062 -0.861,-1.191 -0.597,-2.855 0.569,-3.751 l 1.477,-1.134 c 1.236,-0.949 3.007,-0.676 3.914,0.591 7.669,10.707 13.034,23.003 15.739,35.862 2.935,13.791 2.628,28.253 -0.754,41.905 -0.824,3.421 -1.865,6.787 -3.082,10.088 -1.19,3.311 -2.61,6.537 -4.177,9.688 -1.533,3.154 -3.365,6.218 -5.21,9.146 -0.907,1.412 -1.695,2.699 -2.188,3.898 -0.25,0.598 -0.423,1.165 -0.512,1.706 -0.088,0.536 -0.107,1.023 -0.039,1.558 C -3.635,-3.403 -2.063,-1.132 0,0" /></g><g
           transform="translate(253.7944,384.7495)"
           id="g68"><path
             id="path70"
             style="fill:#ffffff;fill-opacity:1;fill-rule:nonzero;stroke:none"
             d="m 0,0 c -3.954,4.233 -9.413,7.417 -15.532,8.156 -3.061,0.358 -6.178,0.086 -9.158,-0.861 -2.97,-0.945 -5.827,-2.612 -8.07,-5.037 -2.282,-2.479 -3.721,-5.552 -4.245,-8.824 -0.521,-3.255 -0.068,-6.854 1.73,-9.962 1.877,-3.212 4.905,-5.353 8.24,-6.349 1.678,-0.495 3.473,-0.703 5.304,-0.525 0.668,0.064 1.342,0.183 2.009,0.36 1.796,0.476 2.618,2.56 1.621,4.128 l -1.382,2.176 c -0.59,0.928 -1.676,1.415 -2.76,1.227 -0.799,-0.138 -1.702,-0.094 -2.606,0.161 -1.581,0.429 -3.024,1.487 -3.748,2.725 -0.81,1.338 -1.125,3.111 -0.863,4.913 0.252,1.796 1.069,3.576 2.252,4.886 2.442,2.764 6.786,4.153 10.858,3.705 4.118,-0.435 8.139,-2.593 11.206,-5.796 1.544,-1.59 2.885,-3.413 3.912,-5.395 1.027,-1.961 1.807,-4.116 2.312,-6.356 1.012,-4.484 0.998,-9.28 0.233,-14.001 -0.755,-4.723 -2.277,-9.388 -4.187,-13.967 -1.569,-3.775 -3.402,-7.497 -5.301,-11.243 -0.679,-1.339 -0.148,-2.975 1.185,-3.667 l 0.75,-0.389 c 1.343,-0.697 2.992,-0.173 3.694,1.166 1.971,3.761 3.925,7.592 5.654,11.595 2.099,4.855 3.874,9.987 4.816,15.394 0.942,5.382 1.078,11.03 -0.094,16.591 C 6.681,-9.66 4.027,-4.19 0,0" /></g><g
           transform="translate(291.5796,431.1299)"
           id="g72"><path
             id="path74"
             style="fill:#ffffff;fill-opacity:1;fill-rule:nonzero;stroke:none"
             d="m 0,0 c 6.648,7.262 17.682,10.557 27.219,8.272 1.391,-0.334 2.813,0.395 3.284,1.746 l 0.738,2.118 c 0.525,1.503 -0.33,3.169 -1.876,3.55 C 23.582,17.11 17.513,16.954 11.853,15.478 5.259,13.758 -0.908,10.234 -5.593,5.114 -10.28,-0.026 -13.119,-6.44 -14.539,-12.9 c -1.424,-6.49 -1.546,-13.065 -0.909,-19.465 1.336,-12.802 5.4,-24.567 7.543,-36.265 1.079,-5.819 1.658,-11.68 1.324,-17.411 -0.278,-4.834 -1.246,-9.568 -3.115,-13.851 -0.576,-1.321 -0.077,-2.861 1.192,-3.546 l 1.46,-0.786 c 1.392,-0.751 3.151,-0.178 3.797,1.266 2.352,5.254 3.513,10.925 3.855,16.476 0.404,6.512 -0.23,12.937 -1.354,19.16 -2.26,12.401 -6.18,24.036 -7.31,35.688 -0.555,5.779 -0.393,11.61 0.84,17.097 C -5.995,-9.07 -3.62,-3.93 0,0" /></g><g
           transform="translate(337.8823,386.1421)"
           id="g76"><path
             id="path78"
             style="fill:#ffffff;fill-opacity:1;fill-rule:nonzero;stroke:none"
             d="m 0,0 c -0.954,2.748 -2.207,5.427 -3.836,7.907 -0.791,1.253 -1.719,2.425 -2.677,3.568 -0.995,1.142 -2.088,2.207 -3.281,3.176 -2.382,1.928 -5.214,3.516 -8.461,4.234 -1.626,0.36 -3.299,0.471 -5.047,0.29 -1.719,-0.202 -3.369,-0.702 -4.885,-1.427 -3.042,-1.447 -5.539,-3.8 -7.229,-6.703 -1.721,-2.865 -2.439,-6.536 -1.846,-9.94 0.569,-3.405 2.282,-6.425 4.611,-8.798 1.595,-1.598 3.55,-2.897 5.734,-3.718 1.636,-0.614 3.413,0.509 3.634,2.241 l 0.166,1.308 c 0.159,1.246 -0.585,2.388 -1.746,2.864 -1.112,0.457 -2.168,1.152 -3.068,2.043 -1.419,1.43 -2.474,3.288 -2.788,5.186 -0.318,1.876 -10e-4,3.791 1.02,5.537 0.985,1.73 2.549,3.234 4.352,4.088 1.814,0.887 3.694,1.128 5.726,0.684 2.002,-0.426 4,-1.474 5.779,-2.9 1.784,-1.413 3.334,-3.233 4.658,-5.236 1.33,-1.99 2.381,-4.193 3.197,-6.499 1.638,-4.627 2.286,-9.643 2.154,-14.688 -0.117,-5.066 -0.965,-10.177 -2.127,-15.279 -2.117,-9.335 -5.371,-18.709 -7.061,-28.703 -0.26,-1.533 0.789,-2.982 2.329,-3.194 l 0.475,-0.066 c 1.453,-0.2 2.814,0.777 3.066,2.223 1.632,9.343 4.879,18.594 7.178,28.355 1.247,5.329 2.214,10.838 2.383,16.495 C 2.589,-11.3 1.909,-5.499 0,0" /></g><g
           transform="translate(149.5981,328.9663)"
           id="g80"><path
             id="path82"
             style="fill:#cbab6f;fill-opacity:1;fill-rule:nonzero;stroke:none"
             d="m 0,0 -0.219,0.176 c -1.134,0.908 -1.345,2.532 -0.516,3.725 2.834,4.076 4.891,8.732 6.286,13.612 1.642,5.738 2.417,11.777 2.64,17.854 0.446,12.208 -1.223,24.655 -1.282,37.425 -0.028,6.391 0.4,12.865 1.699,19.254 1.297,6.374 3.506,12.704 7.041,18.372 1.158,1.865 2.464,3.627 3.886,5.286 -2.392,-2.374 -4.527,-5.013 -6.317,-7.893 C 9.684,102.142 7.474,95.813 6.178,89.438 4.878,83.05 4.45,76.576 4.478,70.185 4.537,57.414 6.207,44.968 5.761,32.759 5.538,26.683 4.763,20.644 3.12,14.906 1.726,10.025 -0.332,5.369 -3.166,1.293 -3.995,0.1 -3.783,-1.523 -2.649,-2.432 l 0.219,-0.175 c 1.231,-0.987 3.056,-0.745 3.956,0.551 0.363,0.522 0.709,1.054 1.049,1.589 C 1.726,-0.742 0.752,-0.603 0,0" /></g><g
           transform="translate(173.2451,440.9561)"
           id="g84"><path
             id="path86"
             style="fill:#cbab6f;fill-opacity:1;fill-rule:nonzero;stroke:none"
             d="m 0,0 c 5.558,5.446 12.758,9.264 20.395,10.701 1.277,0.24 2.195,1.312 2.252,2.569 C 13.91,11.582 5.753,6.791 0,0" /></g><g
           transform="translate(194.603,322.687)"
           id="g88"><path
             id="path90"
             style="fill:#cbab6f;fill-opacity:1;fill-rule:nonzero;stroke:none"
             d="m 0,0 -1.477,1.134 c -1.166,0.896 -1.43,2.56 -0.569,3.752 7.102,9.828 12.122,21.186 14.671,33.062 2.764,12.734 2.542,26.064 -0.539,38.747 -0.749,3.174 -1.702,6.3 -2.817,9.364 -1.089,3.075 -2.394,6.069 -3.832,8.994 -1.42,2.951 -3.063,5.722 -4.816,8.536 -0.912,1.445 -1.931,3.048 -2.729,4.989 -0.397,0.967 -0.731,2.029 -0.917,3.162 -0.19,1.135 -0.227,2.359 -0.077,3.506 0.27,2.324 1.191,4.447 2.454,6.245 0.033,0.047 0.073,0.089 0.107,0.135 -0.952,-0.808 -1.811,-1.719 -2.538,-2.743 -1.262,-1.798 -2.184,-3.92 -2.453,-6.245 -0.151,-1.146 -0.114,-2.37 0.076,-3.505 0.187,-1.133 0.52,-2.195 0.917,-3.163 0.799,-1.941 1.818,-3.543 2.729,-4.989 1.754,-2.814 3.396,-5.584 4.816,-8.536 C 4.444,89.521 5.75,86.526 6.839,83.451 7.954,80.387 8.907,77.261 9.656,74.087 12.736,61.404 12.958,48.074 10.194,35.34 7.645,23.464 2.625,12.106 -4.477,2.278 -5.338,1.087 -5.074,-0.578 -3.908,-1.473 l 1.477,-1.134 c 1.236,-0.949 3.008,-0.676 3.914,0.591 0.383,0.534 0.755,1.075 1.126,1.617 C 1.759,-0.708 0.774,-0.594 0,0" /></g><g
           transform="translate(222.4082,431.5366)"
           id="g92"><path
             id="path94"
             style="fill:#cbab6f;fill-opacity:1;fill-rule:nonzero;stroke:none"
             d="m 0,0 c -1.341,-0.374 -2.767,0.31 -3.271,1.608 -1.869,4.807 -5.269,8.818 -9.752,10.05 -2.528,0.758 -5.26,0.575 -7.24,-0.56 -1.223,-0.671 -2.265,-1.746 -2.963,-2.946 0.175,0.118 0.35,0.238 0.533,0.338 1.979,1.135 4.711,1.318 7.239,0.56 4.484,-1.232 7.883,-5.243 9.752,-10.05 0.504,-1.297 1.931,-1.981 3.272,-1.607 l 1.148,0.32 c 1.17,0.326 1.937,1.356 2.004,2.488 z" /></g><g
           transform="translate(249.9849,327.4219)"
           id="g96"><path
             id="path98"
             style="fill:#cbab6f;fill-opacity:1;fill-rule:nonzero;stroke:none"
             d="m 0,0 -0.75,0.389 c -1.333,0.692 -1.864,2.328 -1.185,3.667 1.899,3.746 3.732,7.469 5.302,11.243 1.909,4.579 3.431,9.244 4.186,13.967 0.765,4.722 0.779,9.517 -0.233,14.002 -0.505,2.239 -1.284,4.394 -2.312,6.356 -1.028,1.981 -2.368,3.804 -3.911,5.394 -3.068,3.203 -7.089,5.361 -11.207,5.797 -4.073,0.447 -8.415,-0.941 -10.858,-3.706 -0.348,-0.385 -0.653,-0.82 -0.932,-1.276 2.506,1.854 6.016,2.741 9.359,2.374 4.119,-0.436 8.14,-2.594 11.207,-5.797 C 0.209,50.821 1.55,48.998 2.578,47.016 3.605,45.054 4.385,42.9 4.89,40.66 5.902,36.176 5.887,31.38 5.123,26.659 4.367,21.936 2.846,17.271 0.936,12.692 -0.633,8.917 -2.466,5.194 -4.366,1.448 -5.044,0.109 -4.513,-1.527 -3.181,-2.218 l 0.75,-0.389 c 1.343,-0.697 2.993,-0.174 3.695,1.166 0.212,0.404 0.422,0.814 0.633,1.22 C 1.278,-0.37 0.609,-0.316 0,0" /></g><g
           transform="translate(234.4941,363.9551)"
           id="g100"><path
             id="path102"
             style="fill:#cbab6f;fill-opacity:1;fill-rule:nonzero;stroke:none"
             d="m 0,0 c -1.832,-0.178 -3.626,0.031 -5.304,0.525 -3.335,0.996 -6.363,3.137 -8.24,6.35 -1.799,3.106 -2.252,6.706 -1.73,9.961 0.436,2.721 1.513,5.299 3.172,7.518 -0.47,-0.409 -0.928,-0.837 -1.358,-1.301 -2.282,-2.48 -3.721,-5.553 -4.245,-8.824 -0.521,-3.255 -0.068,-6.855 1.73,-9.962 1.877,-3.213 4.906,-5.354 8.241,-6.35 1.677,-0.494 3.472,-0.702 5.303,-0.524 0.668,0.063 1.342,0.182 2.009,0.359 1.215,0.322 1.967,1.382 2.028,2.519 C 1.071,0.147 0.534,0.051 0,0" /></g><g
           transform="translate(321.2295,442.0093)"
           id="g104"><path
             id="path106"
             style="fill:#cbab6f;fill-opacity:1;fill-rule:nonzero;stroke:none"
             d="m 0,0 c -9.537,2.285 -20.571,-1.01 -27.219,-8.271 -0.347,-0.377 -0.673,-0.775 -0.997,-1.173 6.727,6.248 16.903,8.965 25.785,6.837 1.391,-0.334 2.813,0.395 3.285,1.746 l 0.288,0.827 C 0.772,-0.096 0.386,-0.092 0,0" /></g><g
           transform="translate(286.9653,329.5137)"
           id="g108"><path
             id="path110"
             style="fill:#cbab6f;fill-opacity:1;fill-rule:nonzero;stroke:none"
             d="m 0,0 -1.459,0.787 c -1.27,0.684 -1.769,2.223 -1.192,3.545 1.869,4.283 2.837,9.017 3.115,13.851 0.334,5.731 -0.246,11.592 -1.324,17.41 -2.143,11.699 -6.207,23.464 -7.543,36.266 -0.637,6.4 -0.516,12.975 0.909,19.464 1.329,6.05 3.924,12.043 8.094,17.003 -0.54,-0.516 -1.072,-1.042 -1.579,-1.596 -4.687,-5.14 -7.526,-11.554 -8.945,-18.014 -1.425,-6.489 -1.547,-13.065 -0.909,-19.465 1.335,-12.802 5.399,-24.567 7.542,-36.265 1.079,-5.819 1.658,-11.68 1.324,-17.411 C -2.245,10.742 -3.213,6.007 -5.082,1.725 -5.658,0.403 -5.159,-1.137 -3.89,-1.821 l 1.46,-0.787 c 1.392,-0.75 3.151,-0.178 3.798,1.266 0.158,0.353 0.297,0.713 0.444,1.07 C 1.215,-0.384 0.578,-0.312 0,0" /></g><g
           transform="translate(313.3965,377.3389)"
           id="g112"><path
             id="path114"
             style="fill:#cbab6f;fill-opacity:1;fill-rule:nonzero;stroke:none"
             d="m 0,0 c -2.184,0.821 -4.14,2.12 -5.735,3.718 -2.329,2.373 -4.041,5.393 -4.611,8.798 -0.592,3.404 0.125,7.075 1.846,9.941 0.341,0.584 0.722,1.139 1.125,1.675 -1.404,-1.217 -2.609,-2.66 -3.555,-4.283 -1.721,-2.866 -2.439,-6.537 -1.846,-9.94 0.569,-3.406 2.281,-6.426 4.611,-8.799 1.595,-1.598 3.55,-2.897 5.734,-3.717 1.636,-0.615 3.412,0.508 3.634,2.24 L 1.23,-0.152 C 0.829,-0.198 0.41,-0.154 0,0" /></g><g
           transform="translate(330.0957,324.7251)"
           id="g116"><path
             id="path118"
             style="fill:#cbab6f;fill-opacity:1;fill-rule:nonzero;stroke:none"
             d="m 0,0 -0.475,0.065 c -1.54,0.212 -2.589,1.662 -2.329,3.195 1.691,9.993 4.945,19.367 7.061,28.702 1.162,5.103 2.01,10.214 2.128,15.279 0.131,5.046 -0.516,10.062 -2.155,14.688 -0.816,2.307 -1.868,4.509 -3.197,6.5 -1.324,2.002 -2.874,3.822 -4.658,5.235 -1.778,1.427 -3.776,2.475 -5.779,2.9 -2.032,0.444 -3.911,0.203 -5.726,-0.683 -1.631,-0.774 -3.062,-2.08 -4.05,-3.603 0.51,0.386 1.051,0.726 1.62,0.995 1.814,0.887 3.694,1.128 5.726,0.684 2.002,-0.426 4,-1.474 5.779,-2.9 1.784,-1.413 3.334,-3.233 4.658,-5.236 1.329,-1.99 2.38,-4.193 3.197,-6.499 C 3.438,54.695 4.085,49.679 3.954,44.634 3.836,39.568 2.989,34.457 1.826,29.355 -0.29,20.02 -3.544,10.646 -5.235,0.652 c -0.259,-1.533 0.789,-2.982 2.33,-3.194 l 0.475,-0.066 c 1.453,-0.2 2.813,0.777 3.066,2.223 0.023,0.13 0.053,0.26 0.076,0.391 C 0.479,-0.023 0.243,-0.034 0,0" /></g><g
           transform="translate(1008.1953,247.5586)"
           id="g120"><path
             id="path122"
             style="fill:#e9a70b;fill-opacity:1;fill-rule:nonzero;stroke:none"
             d="m 0,0 c 4.368,5.342 7.006,11.93 9.577,18.401 3.923,9.875 7.847,19.75 11.77,29.624 7.212,2.523 15.637,3.101 22.797,0.389 2.38,-0.902 4.764,-2.17 6.208,-4.327 1.936,-2.895 1.765,-6.828 0.6,-10.129 C 49.415,29.602 46.383,25.993 43.168,22.762 31.485,11.017 15.995,3.288 0,0 m -260.831,10.478 c 4.515,-13.33 11.864,-25.691 22.393,-35.156 5.126,-4.608 11.402,-7.271 16.647,-11.553 5.881,-4.801 12.646,-8.033 19.361,-11.648 -0.063,0.034 -1.755,-6.79 -1.823,-7.465 -0.74,-7.304 2.133,-8.668 8.457,-10.579 6.383,-1.928 12.904,-3.396 19.497,-4.397 18.059,-2.743 36.418,-3.797 54.668,-2.939 17.017,0.802 34.471,2.172 50.147,9.434 2.056,0.953 4.171,2.086 5.361,4.015 1.189,1.929 1.026,4.866 -0.909,6.044 1.547,-0.941 13.327,7.078 15.121,8.141 5.354,3.173 10.569,6.582 15.622,10.215 9.611,6.91 18.599,14.548 27.344,22.447 0.577,-4.963 1.213,-10.104 3.762,-14.356 2.55,-4.251 7.592,-7.348 12.222,-5.919 4.742,1.464 7.139,6.712 9.792,11.028 5.949,9.675 15.371,16.426 24.754,22.537 9.383,6.112 19.159,12.003 26.449,20.641 7.289,8.638 11.757,20.798 8.409,31.749 C 73.303,62.991 63.499,70.335 53.146,71.56 42.794,72.784 32.256,68.428 24.572,61.175 24.515,60.932 24.224,60.68 23.987,60.736 c -0.236,0.056 -0.417,0.265 -0.506,0.498 -0.088,0.234 -0.208,0.494 -0.122,0.727 3.227,8.765 0.52,19.512 -6.437,25.559 -6.45,5.607 -15.317,6.933 -23.684,7.908 -33.338,3.886 -66.891,5.745 -100.43,5.577 -26.538,-0.134 -55.622,0.818 -81.845,-3.761 -4.28,-0.747 -13.91,-1.911 -18.256,-2.618 -5.552,-0.903 -12.184,-1.763 -17.647,-3.145 -10.725,-2.713 -13.361,-8.629 -21.833,-16.116 -18.744,-16.562 -21.423,-42.098 -14.058,-64.887" /></g><g
           transform="translate(966.1875,271.2451)"
           id="g124"><path
             id="path126"
             style="fill:#e0c594;fill-opacity:1;fill-rule:nonzero;stroke:none"
             d="m 0,0 c -0.108,0.562 -0.238,1.12 -0.396,1.671 -0.146,0.579 -0.32,1.149 -0.52,1.712 0.462,-0.931 0.377,-0.755 -0.253,0.526 -0.506,0.988 -1.088,1.971 -1.747,2.87 -0.014,-0.102 -1.967,2.039 -1.831,1.909 -0.592,0.57 -1.637,1.448 -2.091,1.78 -7.984,5.836 -19.741,8.337 -29.434,9.719 -11.958,1.704 -24.362,0.398 -35.643,-3.949 -12.405,-4.78 -24.819,-10.729 -32.61,-21.884 -4.956,-7.098 -8.594,-15.043 -13.519,-22.163 -4.925,-7.119 -11.543,-13.607 -19.921,-15.784 -1.615,-2.817 -0.764,-6.544 1.253,-9.089 2.019,-2.544 4.983,-4.136 7.927,-5.507 22.795,-10.618 49.811,-11.809 73.452,-3.238 13.256,4.806 25.364,12.652 35.32,22.62 9.115,9.126 19.128,21.308 20.037,34.689 C 0.117,-2.75 0.123,-1.367 0,0" /></g><g
           transform="translate(894.9961,308.8779)"
           id="g128"><path
             id="path130"
             style="fill:#e0c594;fill-opacity:1;fill-rule:nonzero;stroke:none"
             d="M 0,0 C -0.108,0.058 -0.205,0.129 -0.311,0.189 -8.185,-0.832 -16.29,-0.761 -24.022,-0.375 -35.575,0.201 -47.318,1.633 -58.549,4.577 -66.902,3.646 -75.225,3.056 -83.44,3.569 c -0.333,-2.08 -0.957,-4.077 -1.814,-5.97 1.858,-0.923 3.702,-1.956 5.539,-2.953 2.73,-0.712 5.408,-1.55 7.936,-2.771 22.093,-0.121 44.195,-1.956 66.283,-0.736 1.415,0.078 2.826,0.189 4.237,0.298 0.951,0.654 2.138,1.072 3.571,1.114 2.244,0.065 7.132,0.885 8.071,3.141 C 6.832,-3.194 3.359,-1.784 0,0" /></g><g
           transform="translate(793.5215,313.3467)"
           id="g132"><path
             id="path134"
             style="fill:#e0c594;fill-opacity:1;fill-rule:nonzero;stroke:none"
             d="M 0,0 C -0.294,-0.002 -0.587,-0.01 -0.881,-0.011 -1.587,-0.013 -2.23,0.082 -2.822,0.242 -3.623,-0.03 -4.421,-0.354 -5.211,-0.721 -6.857,-2.079 -8.674,-3.838 -9.814,-5.53 c 0.862,-0.451 1.728,-0.893 2.59,-1.341 0.773,0.536 1.528,1.097 2.237,1.697 C -3.203,-3.664 -1.201,-1.645 0,0" /></g><g
           transform="translate(1031.5547,309.5195)"
           id="g136"><path
             id="path138"
             style="fill:#e0c594;fill-opacity:1;fill-rule:nonzero;stroke:none"
             d="m 0,0 c 3.227,8.765 0.52,19.512 -6.437,25.559 -6.451,5.608 -15.317,6.933 -23.684,7.908 -33.338,3.887 -66.892,5.745 -100.431,5.577 -26.538,-0.134 -55.622,0.818 -81.844,-3.761 -4.281,-0.747 -13.911,-1.91 -18.256,-2.618 -5.552,-0.903 -12.184,-1.763 -17.648,-3.145 -1.477,-0.374 -2.79,-0.814 -3.997,-1.306 1.127,-0.05 2.254,-0.093 3.383,-0.105 0.614,-0.006 1.189,-0.101 1.728,-0.257 9.563,0.044 19.217,-0.337 28.405,0.55 18.518,6.512 38.365,7.418 58.279,8.146 17.297,0.632 34.974,1.303 52.22,-0.847 18.622,-0.639 37.246,-1.929 55.971,-3.088 12.407,-0.767 27.08,-1.172 37.843,-8.18 11.548,-7.519 10.698,-20.142 4.057,-29.693 0.33,-1.455 0.592,-2.958 0.736,-4.546 0.139,-1.515 0.165,-3.039 0.111,-4.564 0.501,1.02 0.982,2.054 1.434,3.104 0.688,1.6 2.043,2.588 3.605,3.042 0.705,1.67 1.501,3.321 2.395,4.958 0.571,1.048 1.401,1.816 2.359,2.341 C 0.186,-0.862 0.148,-0.797 0.122,-0.727 0.033,-0.493 -0.086,-0.233 0,0" /></g><g
           transform="translate(816.6406,286.6699)"
           id="g140"><path
             id="path142"
             style="fill:#e0c594;fill-opacity:1;fill-rule:nonzero;stroke:none"
             d="m 0,0 c -0.98,0.131 -1.939,0.296 -2.884,0.486 -0.567,-0.755 -1.316,-1.382 -2.16,-1.875 0.388,-0.376 0.746,-0.767 1.053,-1.183 1.398,0.713 2.796,1.376 4.175,1.988 0.421,0.188 0.844,0.359 1.266,0.542 C 0.998,-0.079 0.516,-0.069 0,0" /></g><g
           transform="translate(1012.9863,257.1338)"
           id="g144"><path
             id="path146"
             style="fill:#e0c594;fill-opacity:1;fill-rule:nonzero;stroke:none"
             d="M 0,0 C 0.448,0.235 0.908,0.452 1.362,0.68 2.389,2.9 3.327,5.173 4.235,7.448 2.512,5.303 0.796,3.155 -0.869,0.978 -0.55,0.676 -0.261,0.348 0,0" /></g><g
           transform="translate(1018.124,217.998)"
           id="g148"><path
             id="path150"
             style="fill:#e0c594;fill-opacity:1;fill-rule:nonzero;stroke:none"
             d="M 0,0 C -0.521,-0.427 -1.072,-0.764 -1.639,-1.021 -1.678,-1.869 -1.879,-2.675 -2.196,-3.422 1.052,-2.104 3.155,1.046 5.079,4.281 3.407,2.832 1.716,1.402 0,0" /></g><g
           transform="translate(999.6445,231.4463)"
           id="g152"><path
             id="path154"
             style="fill:#e0c594;fill-opacity:1;fill-rule:nonzero;stroke:none"
             d="M 0,0 C 0.079,-0.575 0.168,-1.148 0.262,-1.721 1.711,0.079 3.151,1.885 4.573,3.704 3.028,2.49 1.508,1.247 0,0" /></g><g
           transform="translate(1084.6387,300.2754)"
           id="g156"><path
             id="path158"
             style="fill:#e0c594;fill-opacity:1;fill-rule:nonzero;stroke:none"
             d="m 0,0 c -3.141,10.274 -12.944,17.619 -23.297,18.843 -10.13,1.198 -20.431,-2.955 -28.067,-9.93 2.369,0.635 5.113,0.078 6.919,-1.463 8.755,7.913 19.003,12.925 30.604,4.686 3.41,-2.421 5.518,-5.258 6.618,-8.36 0.139,-0.164 0.284,-0.319 0.418,-0.489 8.44,-10.667 -0.459,-23.629 -8.008,-31.824 -3.543,-3.847 -7.416,-7.338 -11.391,-10.719 -0.173,-1.239 -0.677,-2.501 -1.644,-3.687 -3.04,-3.734 -6.16,-7.4 -9.36,-10.995 0.782,0.521 1.565,1.039 2.35,1.548 9.382,6.113 19.159,12.003 26.449,20.641 C -1.12,-23.11 3.348,-10.951 0,0" /></g><g
           transform="translate(1026.3721,234.7959)"
           id="g160"><path
             id="path162"
             style="fill:#815a05;fill-opacity:1;fill-rule:nonzero;stroke:none"
             d="m 0,0 c -7.456,-2.323 -16.863,-7.995 -17.708,-16.646 -0.102,-1.041 -0.435,-1.924 -0.919,-2.659 2.304,-1.374 4.957,-1.952 7.489,-1.171 4.742,1.464 7.139,6.712 9.792,11.029 C 1.665,-4.552 5.565,-0.406 9.898,3.287 6.65,2.122 3.354,1.046 0,0" /></g><g
           transform="translate(1059.1475,281.5166)"
           id="g164"><path
             id="path166"
             style="fill:#815a05;fill-opacity:1;fill-rule:nonzero;stroke:none"
             d="m 0,0 c -1.537,-4.356 -4.569,-7.965 -7.784,-11.196 -11.683,-11.745 -27.173,-19.474 -43.168,-22.762 4.368,5.342 7.006,11.93 9.577,18.401 3.923,9.875 7.847,19.75 11.77,29.624 7.211,2.523 15.637,3.101 22.796,0.389 2.381,-0.902 4.765,-2.17 6.208,-4.327 C 1.336,7.234 1.165,3.301 0,0 m -54.547,-5.487 c -8.25,-15.522 -20.602,-29.839 -32.973,-42.225 -1.792,-1.794 -3.638,-3.53 -5.532,-5.214 -19.191,-21.066 -47.113,-31.845 -75.061,-35.442 -10.074,-1.297 -20.184,-2.513 -30.351,-2.694 -8.279,-0.147 -16.307,0.809 -24.502,1.795 -11.677,1.406 -25.9,2.638 -33.204,13.09 -1.373,1.059 -2.649,2.273 -3.801,3.679 -0.874,1.067 -1.364,2.208 -1.552,3.347 -0.375,0.456 -0.732,0.935 -1.057,1.456 -0.061,0.097 -0.113,0.198 -0.172,0.296 -0.98,0.568 -1.723,1.475 -1.906,2.749 -0.188,1.291 -0.357,2.584 -0.532,3.875 -0.148,0.796 -0.259,1.602 -0.332,2.421 -2.062,15.757 -3.323,31.593 -3.809,47.487 -0.006,0.206 0.018,0.391 0.033,0.584 -1.896,2.803 -0.639,7.715 3.791,7.739 16.416,0.092 32.75,2.463 49.153,2.637 -3.733,6.699 -9.115,12.579 -14.22,18.406 -0.743,-0.429 -1.597,-0.69 -2.433,-0.69 h -0.64 c -2.705,0 -4.707,2.21 -4.824,4.824 -0.053,1.201 0.576,2.574 1.413,3.41 0.173,0.174 0.374,0.322 0.578,0.468 -0.781,4.333 4.594,8.639 7.884,4.532 0.644,-0.804 1.303,-1.603 1.967,-2.399 0.773,1.027 1.978,1.753 3.622,1.812 9.235,0.331 18.335,-1.341 27.55,-1.487 8.895,-0.141 17.841,0.306 26.703,1.039 18.274,1.511 36.31,4.843 53.965,9.776 5.999,1.676 8.535,-7.635 2.564,-9.304 -7.477,-2.088 -15.031,-3.867 -22.637,-5.371 17.272,-1.047 34.9,-2.621 51.934,-0.482 3.489,0.438 9.875,1.432 15.27,0.859 2.466,0.346 4.918,0.773 7.347,1.355 0.762,0.182 1.483,0.239 2.161,0.198 4.956,0.346 9.325,-3.558 9.928,-9.048 0.921,-8.374 -2.457,-16.201 -6.325,-23.478 m 66.86,23.924 c -6.791,10.124 -23.334,1.505 -32.82,2.171 -2.812,0.198 -5.737,2.397 -5.524,5.525 0.036,0.532 0.091,1.035 0.156,1.521 -0.165,-0.149 -0.343,-0.285 -0.505,-0.437 -0.057,-0.243 -0.349,-0.495 -0.585,-0.439 -0.236,0.056 -0.417,0.265 -0.506,0.498 -0.089,0.234 -0.208,0.494 -0.122,0.727 2.238,6.079 1.616,13.11 -1.294,18.867 -12.274,4.428 -25.05,7.322 -37.909,9.66 -31.933,5.807 -63.855,7.184 -96.259,6.527 -15.87,-0.322 -31.765,-0.681 -47.626,-1.339 -15.537,-0.644 -30.974,-2.189 -45.857,-6.912 -1.509,-0.479 -2.823,-0.325 -3.885,0.225 -0.204,-0.077 -0.411,-0.148 -0.615,-0.225 -3.713,-1.409 -6.24,1.283 -6.616,4.375 -2.849,-0.477 -5.673,-1.009 -8.239,-1.658 -10.724,-2.713 -13.36,-8.629 -21.833,-16.116 -18.743,-16.562 -21.422,-42.098 -14.057,-64.887 4.514,-13.33 11.864,-25.691 22.392,-35.156 5.126,-4.608 11.403,-7.271 16.648,-11.553 5.881,-4.801 12.646,-8.033 19.361,-11.648 -0.063,0.034 -1.755,-6.79 -1.823,-7.465 -0.74,-7.304 2.133,-8.668 8.457,-10.579 1.486,-0.449 2.982,-0.867 4.484,-1.266 -2.15,1.113 -3.863,2.63 -3.787,4.69 0.157,4.245 6.823,3.989 9.582,3.403 7.151,-1.519 13.942,-3.994 21.228,-5.21 8.881,-1.482 17.73,-1.816 26.716,-1.696 17.727,0.236 35.333,1.804 52.389,6.873 1.74,0.518 2.874,-0.883 2.907,-2.287 0.263,-0.364 0.42,-0.813 0.42,-1.327 0.003,-3.293 -3.19,-5.055 -6.323,-6.128 -0.105,-0.216 -0.214,-0.428 -0.334,-0.627 5.83,1.324 11.54,3.13 17.029,5.673 2.057,0.953 4.172,2.086 5.362,4.015 1.189,1.929 1.026,4.866 -0.909,6.044 1.546,-0.941 13.327,7.078 15.121,8.141 5.354,3.173 10.569,6.582 15.622,10.215 9.611,6.91 18.598,14.548 27.344,22.447 0.274,-2.355 0.568,-4.749 1.066,-7.071 2.52,5.029 6.561,9.18 11.497,12.551 8.441,5.763 18.98,6.893 28.147,11.155 9.901,4.602 18.875,10.716 26.918,17.912 1.321,2.915 2.522,5.881 3.546,8.907 2.125,6.284 5.118,15.821 1.036,21.904" /></g><g
           transform="translate(1050.0703,317.0527)"
           id="g168"><path
             id="path170"
             style="fill:#815a05;fill-opacity:1;fill-rule:nonzero;stroke:none"
             d="M 0,0 C 2.737,0.829 5.464,1.723 8.267,2.251 5.582,2.295 2.905,1.986 0.287,1.362 0.25,0.909 0.159,0.452 0,0" /></g><g
           transform="translate(1024.3232,229.333)"
           id="g172"><path
             id="path174"
             style="fill:#4e3302;fill-opacity:1;fill-rule:nonzero;stroke:none"
             d="m 0,0 c -3.102,-1.765 -5.694,-3.751 -8.039,-6.412 -2.228,-2.527 -4.48,-5.161 -7.628,-6.556 -0.177,-0.078 -0.358,-0.136 -0.538,-0.203 -0.112,-0.235 -0.234,-0.461 -0.373,-0.671 2.304,-1.374 4.957,-1.952 7.489,-1.171 4.742,1.464 7.139,6.712 9.792,11.029 C 2.168,-1.603 3.847,0.6 5.681,2.661 3.733,1.92 1.834,1.043 0,0" /></g><g
           transform="translate(756.0977,313.5781)"
           id="g176"><path
             id="path178"
             style="fill:#4e3302;fill-opacity:1;fill-rule:nonzero;stroke:none"
             d="M 0,0 C 1.261,2.176 2.614,4.293 4.041,6.357 3.872,6.811 3.721,7.273 3.604,7.751 -0.854,3.45 -4.302,-1.398 -6.85,-6.601 -4.872,-4.062 -2.58,-1.857 0,0" /></g><g
           transform="translate(806.9668,305.3955)"
           id="g180"><path
             id="path182"
             style="fill:#4e3302;fill-opacity:1;fill-rule:nonzero;stroke:none"
             d="m 0,0 c -2.165,0.189 -4.279,0.564 -6.277,1.141 -2.855,0.823 -5.591,2.265 -7.973,4.139 -1.296,-0.261 -2.609,-0.506 -3.94,-0.732 -0.518,-0.095 -1.037,-0.181 -1.557,-0.261 -3.328,-0.549 -6.705,-1.07 -9.966,-1.792 -0.224,-0.559 -0.443,-1.119 -0.652,-1.677 -3.178,-8.465 -6.34,-16.941 -8.927,-25.611 -4.756,-15.938 -8.318,-33.172 -5.487,-49.78 2.313,-2.82 4.831,-5.48 7.569,-7.942 5.126,-4.608 11.402,-7.271 16.648,-11.553 3.804,-3.106 7.981,-5.553 12.273,-7.874 -0.628,0.751 -1.222,1.554 -1.772,2.408 -5.104,7.913 -7.388,17.835 -9.132,26.962 -1.947,10.185 -3.116,20.603 -3.356,30.972 -0.128,5.545 -1.093,16.547 3.578,20.72 2.064,1.843 5.727,1.925 8.318,2.115 4.515,0.333 9.005,-0.529 13.512,-0.606 5.936,-0.102 12.303,-0.936 18.438,-0.748 C 14.323,-13.298 6.57,-7.264 0,0" /></g><g
           transform="translate(810.0781,190.0205)"
           id="g184"><path
             id="path186"
             style="fill:#4e3302;fill-opacity:1;fill-rule:nonzero;stroke:none"
             d="m 0,0 c 5.558,2.403 12.536,-0.543 18.229,-0.951 2.896,-0.208 5.756,-0.068 8.61,0.028 C 16.006,0.481 4.184,1.354 -4.707,8.241 -5.229,6.215 -6.088,2.672 -6.136,2.194 -6.536,-1.753 -5.871,-3.958 -4.187,-5.46 -4.276,-3.311 -3.158,-1.365 0,0" /></g><g
           transform="translate(1017.7725,265.96)"
           id="g188"><path
             id="path190"
             style="fill:#4e3302;fill-opacity:1;fill-rule:nonzero;stroke:none"
             d="m 0,0 c 3.923,9.875 7.847,19.75 11.77,29.624 7.211,2.522 15.637,3.101 22.796,0.389 2.381,-0.903 4.765,-2.17 6.208,-4.327 1.937,-2.895 1.766,-6.829 0.601,-10.129 C 39.838,11.2 36.806,7.592 33.591,4.36 21.908,-7.385 6.418,-15.113 -9.577,-18.401 -5.209,-13.06 -2.571,-6.472 0,0 m -16.56,-28.812 c 4.254,5.18 10.147,7.608 16.272,9.91 7.892,2.964 15.217,7.168 22.303,11.699 11.217,7.174 24.452,16.262 23.004,31.265 -0.543,5.617 -2.692,10.983 -8.986,11.167 -7.299,0.211 -14.115,-2.6 -21.319,0.021 -4.2,1.527 -6.349,5.942 -4.095,10.063 1.207,2.207 2.686,4.584 4.475,6.574 -0.002,0.091 0.006,0.182 0.003,0.273 -0.15,-0.141 -0.294,-0.285 -0.452,-0.419 C 10.123,47.916 3.387,45.719 -2.265,44.33 -2.355,44.308 -2.447,44.291 -2.538,44.269 -0.341,43.262 1.537,41.648 2.783,39.351 6.187,33.069 3.632,25.187 1.185,19.083 -1.816,11.6 -4.623,3.821 -8.607,-3.206 c -3.937,-6.944 -9.434,-13.034 -14.69,-19.001 -10.669,-12.112 -22.513,-23.314 -35.566,-32.833 -6.078,-4.433 -12.573,-8.701 -19.464,-11.761 -5.726,-2.542 -11.787,-3.706 -17.883,-4.812 -12.291,-4.671 -24.832,-7.289 -37.922,-8.527 8.098,0.262 16.515,1.071 24.325,2.744 7.514,1.61 15.314,4.005 22.983,1.996 3.69,-0.967 4.644,-5.569 2.171,-8.223 -0.08,-0.087 -0.169,-0.163 -0.251,-0.248 1.292,0.513 2.574,1.057 3.842,1.644 2.057,0.954 4.172,2.086 5.362,4.016 1.189,1.929 1.026,4.865 -0.909,6.044 1.546,-0.941 13.327,7.078 15.121,8.141 5.354,3.172 10.569,6.582 15.622,10.214 9.562,6.875 18.507,14.47 27.209,22.327 0.69,0.935 1.405,1.83 2.097,2.673" /></g><g
           transform="translate(1050.0703,317.0527)"
           id="g192"><path
             id="path194"
             style="fill:#4e3302;fill-opacity:1;fill-rule:nonzero;stroke:none"
             d="M 0,0 C 2.737,0.829 5.464,1.723 8.267,2.251 5.582,2.295 2.905,1.986 0.287,1.362 0.25,0.909 0.159,0.452 0,0" /></g><g
           transform="translate(768.6055,321.5137)"
           id="g196"><path
             id="path198"
             style="fill:#2f140a;fill-opacity:1;fill-rule:nonzero;stroke:none"
             d="m 0,0 c 0.053,-8.381 58.499,-14.919 130.542,-14.604 72.044,0.316 130.403,7.366 130.35,15.746 C 260.839,9.522 202.393,16.061 130.35,15.745 58.306,15.43 -0.054,8.38 0,0" /></g><g
           transform="translate(959.4355,436.6851)"
           id="g200"><path
             id="path202"
             style="fill:#ffffff;fill-opacity:1;fill-rule:nonzero;stroke:none"
             d="m 0,0 c 1.09,-0.875 2.653,-0.782 3.601,0.251 3.51,3.826 8.127,6.304 12.699,5.728 2.6,-0.265 5.038,-1.5 6.429,-3.344 1.468,-1.873 2.061,-4.635 1.473,-6.709 -0.137,-0.534 -0.337,-0.988 -0.617,-1.462 -0.284,-0.476 -0.655,-0.946 -1.107,-1.416 -0.901,-0.944 -2.105,-1.856 -3.463,-2.84 -2.787,-2.056 -5.613,-4.246 -8.198,-6.637 -2.614,-2.375 -5.122,-4.878 -7.451,-7.551 -2.349,-2.653 -4.562,-5.437 -6.596,-8.355 -8.205,-11.614 -13.892,-25.19 -16.356,-39.39 -2.325,-13.229 -2.002,-26.957 1.028,-40.076 0.359,-1.552 1.88,-2.5 3.368,-2.081 l 1.779,0.5 c 1.403,0.395 2.268,1.868 1.924,3.331 -2.839,12.067 -3.197,24.773 -1.095,37.01 2.225,13.132 7.412,25.67 14.977,36.483 1.873,2.715 3.916,5.304 6.083,7.772 2.148,2.489 4.464,4.818 6.876,7.028 2.405,2.244 4.948,4.229 7.607,6.212 1.376,1.015 2.909,2.136 4.367,3.664 0.726,0.762 1.429,1.638 2.023,2.639 0.598,1.001 1.089,2.145 1.38,3.289 0.623,2.307 0.571,4.675 0.085,6.868 -0.499,2.198 -1.451,4.253 -2.817,6.036 -2.821,3.64 -6.995,5.492 -11.038,5.906 -2.036,0.213 -4.077,0.072 -6.063,-0.377 C 8.908,12.008 7.061,11.254 5.344,10.275 2.822,8.836 0.635,6.982 -1.252,4.896 -2.346,3.688 -2.2,1.767 -0.934,0.75 Z" /></g><g
           transform="translate(1005.0459,400.8667)"
           id="g204"><path
             id="path206"
             style="fill:#ffffff;fill-opacity:1;fill-rule:nonzero;stroke:none"
             d="m 0,0 c -0.824,-0.324 -1.748,0.148 -2.123,1.114 -1.387,3.574 -3.696,6.5 -6.563,7.291 -1.619,0.495 -3.323,0.272 -4.513,-0.648 -1.242,-0.919 -2.126,-2.684 -2.168,-4.279 -0.019,-0.407 0.014,-0.774 0.094,-1.177 0.08,-0.405 0.213,-0.829 0.397,-1.273 0.363,-0.891 0.915,-1.839 1.546,-2.877 1.288,-2.156 2.573,-4.414 3.676,-6.751 1.123,-2.332 2.157,-4.726 3.051,-7.192 0.911,-2.456 1.714,-4.968 2.384,-7.527 2.731,-10.212 3.57,-21.132 2.348,-31.645 -1.121,-9.802 -3.935,-19.261 -8.263,-27.591 -0.512,-0.985 -1.61,-1.247 -2.428,-0.568 l -0.976,0.811 c -0.771,0.641 -1.011,1.891 -0.525,2.818 4.013,7.647 6.652,16.387 7.718,25.441 1.163,9.709 0.428,19.776 -2.071,29.265 -0.611,2.375 -1.349,4.708 -2.185,6.989 -0.82,2.29 -1.772,4.512 -2.804,6.678 -1.023,2.186 -2.176,4.229 -3.402,6.301 -0.635,1.064 -1.345,2.243 -1.933,3.685 -0.292,0.719 -0.549,1.511 -0.717,2.362 -0.169,0.852 -0.247,1.776 -0.204,2.647 0.064,1.765 0.548,3.397 1.259,4.796 0.719,1.397 1.685,2.578 2.849,3.46 2.395,1.796 5.264,1.995 7.78,1.229 1.268,-0.383 2.472,-1.013 3.583,-1.842 1.11,-0.848 2.08,-1.852 2.928,-2.981 C -0.016,6.878 0.949,5.02 1.688,3.078 2.117,1.953 1.663,0.655 0.706,0.278 Z" /></g><g
           transform="translate(909.3652,326.1064)"
           id="g208"><path
             id="path210"
             style="fill:#ffffff;fill-opacity:1;fill-rule:nonzero;stroke:none"
             d="m 0,0 c 1.248,0.714 1.722,2.296 1.133,3.643 -1.907,4.362 -2.929,9.196 -3.269,14.141 -0.407,5.862 0.089,11.868 1.079,17.836 1.966,11.997 5.834,24.085 6.987,37.204 0.545,6.558 0.338,13.287 -1.16,19.912 -1.492,6.597 -4.388,13.129 -9.097,18.337 -4.708,5.187 -10.861,8.724 -17.412,10.409 -5.624,1.447 -11.635,1.538 -17.343,0.014 -1.525,-0.407 -2.35,-2.122 -1.811,-3.655 l 0.759,-2.159 c 0.485,-1.377 1.903,-2.107 3.276,-1.75 9.413,2.447 20.381,-0.8 27.061,-8.157 3.637,-3.981 6.056,-9.215 7.338,-14.797 1.294,-5.603 1.532,-11.569 1.06,-17.49 C -2.363,61.549 -6.09,49.596 -8.162,36.877 -9.192,30.495 -9.734,23.912 -9.248,17.251 c 0.413,-5.678 1.637,-11.47 4.036,-16.82 0.659,-1.471 2.408,-2.037 3.777,-1.253 z" /></g><g
           transform="translate(828.8389,363.6904)"
           id="g212"><path
             id="path214"
             style="fill:#ffffff;fill-opacity:1;fill-rule:nonzero;stroke:none"
             d="M 0,0 C 0.141,-1.309 1.207,-2.137 2.181,-1.653 3.479,-1.006 4.641,0 5.585,1.228 6.963,3.051 7.97,5.356 8.292,7.94 c 0.337,2.583 -0.11,5.352 -1.152,7.5 -1.024,2.177 -2.527,3.928 -4.35,4.987 -0.908,0.531 -1.896,0.89 -2.923,1.023 -1.044,0.117 -2.043,0.013 -3.011,-0.279 -1.935,-0.582 -3.618,-1.817 -5.029,-3.303 -0.708,-0.748 -1.355,-1.567 -1.942,-2.443 -0.567,-0.876 -1.114,-1.774 -1.58,-2.731 -0.96,-1.896 -1.695,-3.938 -2.25,-6.029 -1.112,-4.183 -1.489,-8.582 -1.352,-12.856 0.129,-4.28 0.734,-8.437 1.506,-12.455 1.422,-7.36 3.407,-14.322 4.429,-21.374 0.158,-1.09 0.975,-1.814 1.841,-1.646 l 0.284,0.056 c 0.919,0.178 1.537,1.288 1.375,2.445 -1.061,7.542 -3.051,14.598 -4.362,21.637 -0.72,3.848 -1.252,7.706 -1.348,11.537 -0.104,3.817 0.257,7.62 1.212,11.141 0.475,1.755 1.091,3.434 1.875,4.956 0.78,1.531 1.696,2.927 2.754,4.017 1.054,1.1 2.242,1.917 3.434,2.262 1.211,0.361 2.334,0.2 3.422,-0.449 C 2.206,15.31 3.146,14.191 3.744,12.893 4.362,11.584 4.562,10.139 4.381,8.715 4.203,7.274 3.582,5.856 2.743,4.758 2.21,4.073 1.584,3.534 0.922,3.176 0.231,2.801 -0.207,1.929 -0.106,0.988 Z" /></g><g
           transform="translate(850.9512,394.125)"
           id="g216"><path
             id="path218"
             style="fill:#ffffff;fill-opacity:1;fill-rule:nonzero;stroke:none"
             d="m 0,0 c -0.338,-2.163 -2.245,-3.449 -3.897,-2.563 -2.207,1.184 -4.148,2.954 -5.697,5.074 -2.26,3.146 -3.841,7.061 -4.216,11.382 -0.399,4.319 0.574,8.883 2.534,12.365 1.929,3.53 4.659,6.313 7.894,7.919 1.613,0.805 3.352,1.318 5.142,1.452 1.818,0.106 3.541,-0.15 5.199,-0.716 3.312,-1.131 6.142,-3.325 8.483,-5.914 1.173,-1.303 2.237,-2.717 3.194,-4.223 0.919,-1.503 1.804,-3.041 2.544,-4.671 1.529,-3.231 2.657,-6.687 3.469,-10.207 1.629,-7.044 1.969,-14.384 1.428,-21.476 -0.529,-7.099 -1.874,-13.955 -3.498,-20.567 -2.99,-12.109 -6.929,-23.509 -9.202,-35.139 -0.352,-1.799 -1.82,-2.932 -3.31,-2.579 l -0.487,0.115 c -1.579,0.374 -2.573,2.27 -2.208,4.179 2.376,12.443 6.328,23.998 9.103,35.583 1.522,6.333 2.719,12.698 3.159,19.056 0.452,6.333 0.097,12.683 -1.306,18.613 -0.699,2.956 -1.648,5.798 -2.897,8.393 -1.243,2.61 -2.733,5.006 -4.489,6.906 -1.749,1.918 -3.75,3.375 -5.794,4.05 -2.072,0.7 -4.031,0.528 -5.962,-0.459 -1.918,-0.948 -3.629,-2.729 -4.757,-4.834 -1.165,-2.123 -1.614,-4.509 -1.403,-6.889 0.205,-2.408 1.181,-4.817 2.558,-6.713 0.875,-1.183 1.923,-2.131 3.044,-2.782 1.171,-0.681 1.868,-2.168 1.626,-3.722 z" /></g><g
           transform="translate(958.502,437.4346)"
           id="g220"><path
             id="path222"
             style="fill:#cbab6f;fill-opacity:1;fill-rule:nonzero;stroke:none"
             d="m 0,0 0.934,-0.75 c 1.089,-0.875 2.653,-0.781 3.6,0.251 3.511,3.826 8.127,6.304 12.699,5.728 2.601,-0.265 5.038,-1.499 6.429,-3.343 0.73,-0.931 1.241,-2.08 1.502,-3.256 C 25.69,0.689 25.101,3.37 23.662,5.204 22.271,7.048 19.834,8.283 17.233,8.547 12.661,9.124 8.045,6.646 4.534,2.82 3.587,1.787 2.023,1.693 0.934,2.569 L 0,3.319 C -0.204,3.482 -0.368,3.676 -0.514,3.879 -1.372,2.67 -1.18,0.947 0,0" /></g><g
           transform="translate(990.167,434.0498)"
           id="g224"><path
             id="path226"
             style="fill:#cbab6f;fill-opacity:1;fill-rule:nonzero;stroke:none"
             d="m 0,0 c -0.291,-1.144 -0.782,-2.288 -1.381,-3.29 -0.594,-1 -1.297,-1.876 -2.022,-2.638 -1.458,-1.528 -2.992,-2.649 -4.368,-3.664 -2.659,-1.983 -5.202,-3.968 -7.606,-6.212 -2.412,-2.21 -4.728,-4.539 -6.877,-7.028 -2.167,-2.468 -4.21,-5.058 -6.083,-7.772 -7.564,-10.813 -12.752,-23.351 -14.976,-36.483 -0.981,-5.706 -1.418,-11.514 -1.327,-17.311 0.091,4.691 0.534,9.375 1.327,13.993 2.224,13.132 7.412,25.669 14.976,36.482 1.873,2.715 3.916,5.304 6.083,7.773 2.149,2.488 4.465,4.817 6.877,7.027 2.404,2.244 4.947,4.229 7.606,6.212 1.376,1.015 2.91,2.137 4.368,3.664 0.725,0.762 1.428,1.638 2.022,2.639 0.599,1.001 1.09,2.146 1.381,3.29 0.469,1.739 0.554,3.513 0.359,5.221 C 0.285,1.268 0.17,0.632 0,0" /></g><g
           transform="translate(947.6611,327.9287)"
           id="g228"><path
             id="path230"
             style="fill:#cbab6f;fill-opacity:1;fill-rule:nonzero;stroke:none"
             d="m 0,0 c -0.346,-0.62 -0.92,-1.105 -1.637,-1.308 l -1.779,-0.5 c -1.487,-0.418 -3.009,0.53 -3.367,2.081 -1.582,6.852 -2.419,13.869 -2.534,20.894 -0.133,-8.13 0.702,-16.282 2.534,-24.212 0.358,-1.552 1.88,-2.499 3.367,-2.081 l 1.779,0.5 c 1.404,0.395 2.269,1.869 1.924,3.332 C 0.187,-0.864 0.095,-0.432 0,0" /></g><g
           transform="translate(1003.1748,349.2212)"
           id="g232"><path
             id="path234"
             style="fill:#cbab6f;fill-opacity:1;fill-rule:nonzero;stroke:none"
             d="m 0,0 c -1.121,-9.802 -3.935,-19.261 -8.263,-27.591 -0.512,-0.985 -1.61,-1.247 -2.427,-0.568 l -0.977,0.811 c -0.067,0.056 -0.126,0.122 -0.185,0.187 -0.116,-0.227 -0.221,-0.463 -0.339,-0.688 -0.487,-0.927 -0.247,-2.177 0.524,-2.817 l 0.977,-0.812 c 0.817,-0.678 1.915,-0.416 2.427,0.569 4.328,8.329 7.142,17.788 8.263,27.59 C 0.42,0.295 0.579,3.957 0.519,7.621 0.46,5.068 0.293,2.522 0,0" /></g><g
           transform="translate(994.4453,383.0674)"
           id="g236"><path
             id="path238"
             style="fill:#cbab6f;fill-opacity:1;fill-rule:nonzero;stroke:none"
             d="M 0,0 C 0.836,-2.281 1.573,-4.613 2.185,-6.989 3.784,-13.062 4.652,-19.372 4.771,-25.674 4.945,-18.278 4.064,-10.811 2.185,-3.67 1.573,-1.294 0.836,1.038 0,3.319 c -0.82,2.289 -1.772,4.513 -2.805,6.678 -1.022,2.186 -2.175,4.229 -3.401,6.301 -0.636,1.064 -1.346,2.244 -1.934,3.685 -0.292,0.719 -0.548,1.511 -0.716,2.362 -0.039,0.194 -0.054,0.4 -0.083,0.6 -0.063,-0.415 -0.106,-0.84 -0.122,-1.272 -0.043,-0.871 0.036,-1.795 0.205,-2.647 0.168,-0.85 0.424,-1.642 0.716,-2.361 0.588,-1.442 1.298,-2.622 1.934,-3.686 C -4.98,10.908 -3.827,8.865 -2.805,6.678 -1.772,4.513 -0.82,2.29 0,0" /></g><g
           transform="translate(1006.3457,404.8799)"
           id="g240"><path
             id="path242"
             style="fill:#cbab6f;fill-opacity:1;fill-rule:nonzero;stroke:none"
             d="M 0,0 C -0.166,-0.181 -0.364,-0.326 -0.594,-0.417 L -1.3,-0.694 c -0.824,-0.325 -1.748,0.148 -2.123,1.113 -1.387,3.574 -3.696,6.5 -6.562,7.292 -1.619,0.494 -3.324,0.271 -4.514,-0.648 -1.242,-0.919 -2.126,-2.685 -2.168,-4.28 -0.019,-0.407 0.015,-0.774 0.094,-1.177 0.043,-0.215 0.102,-0.436 0.175,-0.662 0.354,1.114 1.037,2.162 1.899,2.8 1.19,0.92 2.895,1.143 4.514,0.648 2.866,-0.791 5.175,-3.717 6.562,-7.291 0.375,-0.966 1.299,-1.438 2.123,-1.114 l 0.706,0.278 c 0.957,0.377 1.411,1.674 0.983,2.799 C 0.269,-0.62 0.133,-0.311 0,0" /></g><g
           transform="translate(908.1621,406.7432)"
           id="g244"><path
             id="path246"
             style="fill:#cbab6f;fill-opacity:1;fill-rule:nonzero;stroke:none"
             d="m 0,0 c 0.117,4.646 -0.24,9.265 -1.256,13.66 -1.282,5.581 -3.701,10.816 -7.338,14.797 -6.679,7.357 -17.648,10.604 -27.061,8.157 -1.373,-0.357 -2.791,0.372 -3.276,1.75 l -0.471,1.342 c -0.45,-0.714 -0.592,-1.633 -0.287,-2.502 l 0.758,-2.159 c 0.485,-1.377 1.903,-2.107 3.276,-1.75 9.413,2.448 20.382,-0.799 27.061,-8.156 3.637,-3.981 6.056,-9.216 7.338,-14.798 C -0.482,6.995 -0.094,3.519 0,0" /></g><g
           transform="translate(915.2949,402.2495)"
           id="g248"><path
             id="path250"
             style="fill:#cbab6f;fill-opacity:1;fill-rule:nonzero;stroke:none"
             d="m 0,0 c -1.152,-13.119 -5.021,-25.207 -6.986,-37.205 -0.851,-5.127 -1.332,-10.281 -1.195,-15.349 0.095,3.991 0.529,8.019 1.195,12.031 1.965,11.997 5.834,24.085 6.986,37.204 0.22,2.642 0.309,5.313 0.249,7.992 C 0.211,3.109 0.129,1.549 0,0" /></g><g
           transform="translate(910.2744,330.2983)"
           id="g252"><path
             id="path254"
             style="fill:#cbab6f;fill-opacity:1;fill-rule:nonzero;stroke:none"
             d="m 0,0 c -0.229,-0.349 -0.527,-0.655 -0.909,-0.874 l -1.435,-0.821 c -1.369,-0.784 -3.118,-0.219 -3.777,1.252 -2.4,5.351 -3.623,11.142 -4.036,16.82 -0.084,1.154 -0.127,2.303 -0.153,3.451 -0.051,-2.245 -0.013,-4.502 0.153,-6.769 0.413,-5.678 1.636,-11.47 4.036,-16.82 0.659,-1.471 2.408,-2.037 3.777,-1.253 l 1.435,0.822 c 1.248,0.714 1.721,2.296 1.133,3.643 C 0.145,-0.369 0.076,-0.182 0,0" /></g><g
           transform="translate(822.7031,326.2739)"
           id="g256"><path
             id="path258"
             style="fill:#cbab6f;fill-opacity:1;fill-rule:nonzero;stroke:none"
             d="M 0,0 C -0.249,-0.454 -0.636,-0.785 -1.102,-0.875 L -1.385,-0.93 c -0.866,-0.169 -1.683,0.555 -1.842,1.645 -1.021,7.052 -3.006,14.014 -4.428,21.374 -0.771,4.012 -1.375,8.162 -1.505,12.435 -0.036,-1.104 -0.036,-2.206 -10e-4,-3.299 0.129,-4.279 0.734,-8.436 1.506,-12.455 1.422,-7.36 3.407,-14.322 4.428,-21.373 0.159,-1.091 0.976,-1.814 1.842,-1.646 l 0.283,0.055 c 0.919,0.179 1.538,1.288 1.375,2.445 C 0.19,-1.161 0.093,-0.582 0,0" /></g><g
           transform="translate(837.1309,374.9492)"
           id="g260"><path
             id="path262"
             style="fill:#cbab6f;fill-opacity:1;fill-rule:nonzero;stroke:none"
             d="m 0,0 c -0.322,-2.584 -1.329,-4.889 -2.707,-6.713 -0.944,-1.227 -2.105,-2.234 -3.404,-2.88 -0.745,-0.371 -1.541,0.03 -1.939,0.825 -0.262,-0.421 -0.408,-0.943 -0.348,-1.503 l 0.106,-0.988 c 0.141,-1.308 1.207,-2.137 2.181,-1.653 1.299,0.647 2.46,1.653 3.404,2.881 1.378,1.823 2.385,4.129 2.707,6.713 0.146,1.113 0.137,2.259 0.006,3.377 C 0.003,0.04 0.003,0.02 0,0" /></g><g
           transform="translate(832.583,376.5835)"
           id="g264"><path
             id="path266"
             style="fill:#cbab6f;fill-opacity:1;fill-rule:nonzero;stroke:none"
             d="m 0,0 c 0.232,-0.493 0.387,-1.009 0.503,-1.532 0.049,0.223 0.105,0.446 0.134,0.673 C 0.817,0.564 0.618,2.009 0,3.319 c -0.598,1.297 -1.538,2.417 -2.619,3.042 -1.088,0.65 -2.211,0.81 -3.422,0.45 -1.192,-0.346 -2.38,-1.162 -3.435,-2.263 -1.057,-1.09 -1.973,-2.485 -2.753,-4.017 -0.784,-1.522 -1.4,-3.2 -1.875,-4.956 -0.956,-3.52 -1.316,-7.324 -1.212,-11.14 0.003,-0.119 0.014,-0.238 0.018,-0.357 0.109,2.808 0.486,5.571 1.194,8.179 0.475,1.755 1.091,3.434 1.875,4.956 0.78,1.531 1.696,2.927 2.753,4.016 1.055,1.101 2.243,1.918 3.435,2.263 1.211,0.361 2.334,0.2 3.422,-0.45 C -1.538,2.417 -0.598,1.298 0,0" /></g><g
           transform="translate(861.8936,417.1074)"
           id="g268"><path
             id="path270"
             style="fill:#cbab6f;fill-opacity:1;fill-rule:nonzero;stroke:none"
             d="m 0,0 c 1.756,-1.9 3.245,-4.297 4.488,-6.906 1.249,-2.595 2.199,-5.437 2.898,-8.393 0.892,-3.772 1.357,-7.714 1.464,-11.712 0.113,5.13 -0.326,10.219 -1.464,15.03 C 6.687,-9.025 5.737,-6.183 4.488,-3.588 3.245,-0.978 1.756,1.418 0,3.318 c -1.749,1.918 -3.75,3.375 -5.794,4.05 -2.072,0.7 -4.031,0.528 -5.963,-0.459 -1.918,-0.948 -3.629,-2.729 -4.757,-4.834 -1.165,-2.123 -1.613,-4.509 -1.402,-6.889 0.016,-0.174 0.043,-0.347 0.065,-0.521 0.193,1.42 0.631,2.804 1.337,4.091 1.128,2.106 2.839,3.887 4.757,4.834 1.932,0.988 3.891,1.16 5.963,0.459 C -3.75,3.375 -1.749,1.917 0,0" /></g><g
           transform="translate(850.9512,397.4434)"
           id="g272"><path
             id="path274"
             style="fill:#cbab6f;fill-opacity:1;fill-rule:nonzero;stroke:none"
             d="m 0,0 c -0.338,-2.163 -2.245,-3.449 -3.897,-2.563 -2.207,1.185 -4.148,2.955 -5.697,5.074 -2.26,3.146 -3.841,7.062 -4.216,11.382 -0.008,0.096 -0.007,0.193 -0.014,0.289 -0.091,-1.203 -0.096,-2.414 0.014,-3.608 0.375,-4.32 1.956,-8.235 4.216,-11.382 1.549,-2.119 3.49,-3.889 5.697,-5.073 1.652,-0.887 3.559,0.4 3.897,2.563 l 0.254,1.632 c 0.109,0.699 0.02,1.379 -0.208,1.983 z" /></g><g
           transform="translate(877.0283,385.8657)"
           id="g276"><path
             id="path278"
             style="fill:#cbab6f;fill-opacity:1;fill-rule:nonzero;stroke:none"
             d="m 0,0 c -0.529,-7.099 -1.874,-13.956 -3.498,-20.567 -2.99,-12.109 -6.929,-23.51 -9.202,-35.14 -0.352,-1.798 -1.821,-2.932 -3.31,-2.578 l -0.487,0.115 c -0.915,0.217 -1.622,0.951 -1.993,1.896 -0.07,-0.347 -0.149,-0.688 -0.215,-1.036 -0.365,-1.909 0.629,-3.804 2.208,-4.178 l 0.487,-0.116 c 1.489,-0.353 2.958,0.78 3.31,2.579 2.273,11.63 6.212,23.03 9.202,35.139 1.624,6.612 2.969,13.469 3.498,20.568 0.201,2.642 0.28,5.319 0.216,8.002 C 0.186,3.115 0.118,1.551 0,0" /></g><g
           transform="translate(313.6294,283.4424)"
           id="g280"><path
             id="path282"
             style="fill:#f9ddbd;fill-opacity:1;fill-rule:nonzero;stroke:none"
             d="m 0,0 c 0,0 25,47.908 47.721,65.717 22.722,17.809 77.553,33.078 77.553,33.078 L 182.887,6.429 52.354,-94.553 l 6.82,90.629 z" /></g><g
           transform="translate(313.6294,283.4424)"
           id="g284"><path
             id="path286"
             style="fill:none;stroke:#000000;stroke-width:7;stroke-linecap:butt;stroke-linejoin:miter;stroke-miterlimit:10;stroke-dasharray:none;stroke-opacity:1"
             d="m 0,0 c 0,0 25,47.908 47.721,65.717 22.722,17.809 77.553,33.078 77.553,33.078 L 182.887,6.429 52.354,-94.553 l 6.82,90.629 z" /></g><g
           transform="translate(379.9272,305.2217)"
           id="g288"><path
             id="path290"
             style="fill:#b0814d;fill-opacity:1;fill-rule:nonzero;stroke:none"
             d="m 0,0 c 14.544,-18.972 23.914,-40.962 37.444,-60.591 2.613,-3.79 4.261,-7.877 5.079,-12.057 l 74.066,57.297 -57.613,92.367 c 0,0 -54.831,-15.269 -77.553,-33.078 -2.202,-1.727 -4.426,-3.741 -6.647,-5.962 C -16.826,25.357 -9.317,12.153 0,0" /></g><g
           transform="translate(829.9775,301.5908)"
           id="g292"><path
             id="path294"
             style="fill:#f9ddbd;fill-opacity:1;fill-rule:nonzero;stroke:none"
             d="m 0,0 c 0,0 -28.302,46.034 -52.218,62.204 -23.916,16.17 -79.683,27.551 -79.683,27.551 l -50.987,-96.183 137.302,-91.567 -13.167,89.927 z" /></g><g
           transform="translate(829.9775,301.5908)"
           id="g296"><path
             id="path298"
             style="fill:none;stroke:#000000;stroke-width:7;stroke-linecap:butt;stroke-linejoin:miter;stroke-miterlimit:10;stroke-dasharray:none;stroke-opacity:1"
             d="m 0,0 c 0,0 -28.302,46.034 -52.218,62.204 -23.916,16.17 -79.683,27.551 -79.683,27.551 l -50.987,-96.183 137.302,-91.567 -13.167,89.927 z" /></g><g
           transform="translate(409.77,304.6553)"
           id="g300"><path
             id="path302"
             style="fill:#a57542;fill-opacity:1;fill-rule:nonzero;stroke:none"
             d="M 0,0 C 1.333,-0.667 85.333,-12.334 85.333,-12.334 L 31,82 Z" /></g><g
           transform="translate(409.77,304.6553)"
           id="g304"><path
             id="path306"
             style="fill:none;stroke:#000000;stroke-width:7;stroke-linecap:butt;stroke-linejoin:round;stroke-miterlimit:10;stroke-dasharray:none;stroke-opacity:1"
             d="M 0,0 C 1.333,-0.667 85.333,-12.334 85.333,-12.334 L 31,82 Z" /></g><g
           transform="translate(728.8643,245.834)"
           id="g308"><path
             id="path310"
             style="fill:#b0814d;fill-opacity:1;fill-rule:nonzero;stroke:none"
             d="m 0,0 c 8.955,16.26 19.618,30.93 30.838,45.541 -0.02,-0.025 -0.04,-0.052 -0.06,-0.077 12.666,16.4 23.266,34.814 36.138,51.211 -5.176,5.883 -10.515,11.133 -15.69,14.904 -23.333,17 -78.666,30.333 -78.666,30.333 L -81.774,47.579 -4.367,-8.069 C -2.925,-5.372 -1.476,-2.679 0,0" /></g><g
           transform="translate(731.1035,304.6553)"
           id="g312"><path
             id="path314"
             style="fill:#a57542;fill-opacity:1;fill-rule:nonzero;stroke:none"
             d="M 0,0 C -1.333,-0.667 -85.333,-12.334 -85.333,-12.334 L -31,82 Z" /></g><g
           transform="translate(731.1035,304.6553)"
           id="g316"><path
             id="path318"
             style="fill:none;stroke:#000000;stroke-width:7;stroke-linecap:butt;stroke-linejoin:round;stroke-miterlimit:10;stroke-dasharray:none;stroke-opacity:1"
             d="M 0,0 C -1.333,-0.667 -85.333,-12.334 -85.333,-12.334 L -31,82 Z" /></g><g
           transform="translate(330.3359,413.7266)"
           id="g320"><path
             id="path322"
             style="fill:#f9ddbd;fill-opacity:1;fill-rule:nonzero;stroke:none"
             d="m 0,0 71.69,-107.018 c 0,0 47.097,45.516 155.601,47.328 108.503,1.813 183.79,-47.74 183.79,-47.74 l 49.5,114.736 c 0,0 -77.748,89.565 -233.445,86.093 C 71.439,89.928 0,0 0,0" /></g><g
           transform="translate(330.3359,413.7266)"
           id="g324"><path
             id="path326"
             style="fill:none;stroke:#000000;stroke-width:7;stroke-linecap:butt;stroke-linejoin:miter;stroke-miterlimit:10;stroke-dasharray:none;stroke-opacity:1"
             d="m 0,0 71.69,-107.018 c 0,0 47.097,45.516 155.601,47.328 108.503,1.813 183.79,-47.74 183.79,-47.74 l 49.5,114.736 c 0,0 -77.748,89.565 -233.445,86.093 C 71.439,89.928 0,0 0,0 Z" /></g><g
           transform="translate(405.3403,334.6919)"
           id="g328"><path
             id="path330"
             style="fill:#eee3d7;fill-opacity:1;fill-rule:nonzero;stroke:none"
             d="m 0,0 c -10.216,19.759 -20.685,38.91 -34.427,56.365 -9.813,11.46 -20.257,22.356 -30.448,33.478 -6.791,-6.61 -10.129,-10.808 -10.129,-10.808 l 71.69,-107.018 c 0,0 4.104,3.964 12.672,9.598 C 6.27,-12.242 3.159,-6.109 0,0" /></g><g
           transform="translate(593.1934,410.2378)"
           id="g332"><path
             id="path334"
             style="fill:#eee3d7;fill-opacity:1;fill-rule:nonzero;stroke:none"
             d="m 0,0 c 1.941,17.248 3.779,34.557 4.714,51.893 0.766,14.217 3.055,28.245 5.285,42.283 -12.627,1.493 -25.887,2.406 -39.809,2.584 -23.075,0.297 -44.351,-1.382 -63.878,-4.437 0.09,-0.376 0.189,-0.753 0.277,-1.129 2.09,-8.957 3.904,-17.977 5.506,-27.034 5.727,-32.389 10.544,-64.896 18.639,-96.833 2.052,-8.096 4.48,-16.084 6.984,-24.049 8.626,0.474 17.702,0.659 27.249,0.482 9.636,-0.177 18.987,-0.758 28.044,-1.656 C -4.658,-38.598 -2.174,-19.316 0,0" /></g><g
           transform="translate(404.5356,390.2925)"
           id="g336"><path
             id="path338"
             style="fill:#ad906f;fill-opacity:1;fill-rule:nonzero;stroke:none"
             d="M 0,0 C -9.125,12.875 -18.275,25.69 -27.083,38.792 -30.882,44.446 -34.564,50.185 -38.689,55.6 -62.634,37.983 -74.2,23.434 -74.2,23.434 L -2.509,-83.583 c 0,0 14.576,14.076 46.171,26.885 C 26.937,-39.762 13.662,-19.277 0,0" /></g><g
           transform="translate(748.9736,453.543)"
           id="g340"><path
             id="path342"
             style="fill:#ad906f;fill-opacity:1;fill-rule:nonzero;stroke:none"
             d="m 0,0 c -3.454,-4.984 -7.088,-9.857 -10.817,-14.663 -1.669,-2.861 -3.348,-5.717 -5.066,-8.55 -14.988,-24.721 -32.411,-48.252 -50.167,-71.211 -3.23,-4.941 -6.595,-9.769 -10.089,-14.524 -1.641,-2.366 -3.178,-4.797 -4.726,-7.219 43.837,-15.37 69.798,-33.794 69.798,-33.794 l 53.5,112.926 c 0,0 -13.974,17.276 -42.433,37.035" /></g><g
           transform="translate(382.1265,433.1226)"
           id="g344"><path
             id="path346"
             style="fill:#df0209;fill-opacity:1;fill-rule:nonzero;stroke:none"
             d="m 0,0 c 6.96,8.002 16.361,13.853 26.615,16.562 3.745,0.991 8.008,1.494 11.261,-0.608 2.347,-1.517 3.726,-4.115 5.005,-6.599 1.14,-2.213 2.279,-4.426 3.418,-6.64 1.524,-2.959 3.078,-6.021 3.33,-9.34 0.253,-3.32 -1.129,-6.998 -4.129,-8.44 -2.601,-1.252 -5.826,-0.527 -8.16,1.17 -2.335,1.698 -3.926,4.219 -5.263,6.777 -1.338,2.557 -2.492,5.235 -4.211,7.553 -1.719,2.318 -4.127,4.295 -6.976,4.754 -1.983,0.32 -4.294,-0.297 -5.263,-2.057 -1.049,-1.903 -0.173,-4.258 0.78,-6.211 5.813,-11.919 12.212,-23.597 18.515,-35.318 3.281,-6.103 6.562,-12.205 9.844,-18.307 1.641,-3.051 3.281,-6.102 4.922,-9.153 1.559,-2.899 2.927,-5.75 4.942,-8.342 0.638,-0.822 1.277,-1.643 1.915,-2.465 0.391,-0.502 0.789,-1.011 1.31,-1.376 0.52,-0.364 1.192,-0.568 1.802,-0.388 0.902,0.266 1.395,1.299 1.353,2.238 -0.041,0.94 -0.49,1.806 -0.929,2.636 -2.856,5.401 -5.712,10.801 -8.568,16.201 -0.651,1.232 -1.308,2.478 -1.655,3.828 -0.347,1.349 -0.36,2.833 0.249,4.086 0.674,1.384 2.027,2.332 3.458,2.896 3.214,1.268 7.06,0.778 9.854,-1.253 2.06,-1.498 3.488,-3.695 4.78,-5.89 1.605,-2.725 3.075,-5.529 4.405,-8.399 1.121,-2.421 2.768,-4.936 2.63,-7.634 -0.278,-5.495 -2.572,-10.881 -6.399,-14.841 -4.434,-4.588 -10.856,-7.187 -17.233,-6.973 -6.377,0.215 -12.61,3.239 -16.726,8.115 -2.629,3.114 -4.374,6.861 -6.087,10.559 -3.146,6.787 -6.292,13.575 -9.438,20.362 -6.176,13.324 -13.572,26.17 -19.399,39.65 -0.897,2.076 -1.788,4.201 -1.989,6.452 C -2.237,-4.143 -1.483,-1.706 0,0" /></g><g
           transform="translate(429.3706,458.7437)"
           id="g348"><path
             id="path350"
             style="fill:#df0209;fill-opacity:1;fill-rule:nonzero;stroke:none"
             d="m 0,0 37.868,-105.268 32.898,10.88 -3.641,11.383 -14.584,-5.106 -14.741,43.376 16.078,5.303 -3.382,11.14 -15.544,-6.284 -10.141,32.923 19.972,8.771 -5.603,10.231 z" /></g><g
           transform="translate(478.7007,479.1909)"
           id="g352"><path
             id="path354"
             style="fill:#df0209;fill-opacity:1;fill-rule:nonzero;stroke:none"
             d="m 0,0 12.899,3.192 37.39,-62.008 -7.139,69.796 12.743,0.436 12.577,-119.14 -10.244,-0.35 c 0,0 -28.09,46.067 -28.256,46.062 -0.167,-0.006 13.471,-47.735 13.471,-47.735 l -16.477,-3.398 z" /></g><g
           transform="translate(541.5298,492.5952)"
           id="g356"><path
             id="path358"
             style="fill:#df0209;fill-opacity:1;fill-rule:nonzero;stroke:none"
             d="m 0,0 c 0.003,-0.083 55.725,-0.764 55.725,-0.764 l 0.054,-11.338 -18.776,0.442 1.877,-108.582 -19.738,-0.675 -1.265,110.188 -17.481,-0.848 z" /></g><g
           transform="translate(629.7461,441.4121)"
           id="g360"><path
             id="path362"
             style="fill:#df0209;fill-opacity:1;fill-rule:nonzero;stroke:none"
             d="M 0,0 C -4.932,-11.842 -14.575,-12.672 -14.575,-12.672 L -4.016,34.55 c 0,0 8.707,-1.037 9.917,-7.166 C 7.111,21.255 4.932,11.842 0,0 m 17.799,35.462 c -2.92,12.241 -38.495,13.86 -37.496,13.894 0,0 -23.338,-117.366 -23.183,-117.027 0.155,0.339 19.93,-2.487 19.93,-2.487 0,0 5.16,44.202 5.844,43.725 0.682,-0.477 7.768,-46.762 7.768,-46.762 0,0 14.444,-3.008 14.428,-2.509 -0.018,0.5 -10.611,51.835 -10.427,51.341 0.184,-0.494 17.502,5.101 20.523,19.212 3.019,14.111 5.533,28.373 2.613,40.613" /></g><g
           transform="translate(679.5801,388.584)"
           id="g364"><path
             id="path366"
             style="fill:#df0209;fill-opacity:1;fill-rule:nonzero;stroke:none"
             d="M 0,0 -13.106,2.887 5.606,40.882 Z m 7.738,80.978 -51.481,-103.868 15.355,-5.263 12.591,21.943 11.424,-2.445 -2.588,-26.77 14.163,-4.519 16.921,114.812 z" /></g><g
           transform="translate(739.7402,448.3403)"
           id="g368"><path
             id="path370"
             style="fill:#df0209;fill-opacity:1;fill-rule:nonzero;stroke:none"
             d="m 0,0 c 0.494,0.184 17.406,-11.579 17.406,-11.579 l -42.772,-90.347 15.409,-6.811 -6.149,-10.383 -32.12,17.58 z" /></g><g
           transform="translate(771.4365,212.4971)"
           id="g372"><path
             id="path374"
             style="fill:#2f140a;fill-opacity:1;fill-rule:nonzero;stroke:none"
             d="m 0,0 c 0,-44.658 -36.202,-80.86 -80.86,-80.86 h -242.946 c -44.658,0 -80.861,36.202 -80.861,80.86 v 11.371 c 0,44.658 36.203,80.86 80.861,80.86 H -80.86 C -36.202,92.231 0,56.029 0,11.371 Z m -71.86,97.88 h -262.946 c -44.658,0 -80.861,-36.203 -80.861,-80.861 V -5.647 c 0,-44.659 36.203,-80.862 80.861,-80.862 H -71.86 C -27.202,-86.509 9,-50.306 9,-5.647 V 17.019 C 9,61.677 -27.202,97.88 -71.86,97.88" /></g><g
           transform="translate(690.5762,131.6367)"
           id="g376"><path
             id="path378"
             style="fill:#008569;fill-opacity:1;fill-rule:nonzero;stroke:none"
             d="m 0,0 h -242.945 c -44.659,0 -80.861,36.202 -80.861,80.86 v 11.371 c 0,44.659 36.202,80.861 80.861,80.861 H 0 c 44.658,0 80.86,-36.202 80.86,-80.861 V 80.86 C 80.86,36.202 44.658,0 0,0" /></g><g
           transform="translate(463.4971,301.1221)"
           id="g380"><path
             id="path382"
             style="fill:#006048;fill-opacity:1;fill-rule:nonzero;stroke:none"
             d="m 0,0 c 28.609,0.589 57.243,0.785 85.837,1.915 12,0.475 23.995,1.073 35.988,1.691 H -15.866 c -9.082,0 -17.803,-1.519 -25.952,-4.28 C -27.878,-0.538 -13.938,-0.286 0,0" /></g><g
           transform="translate(714.9902,179.0137)"
           id="g384"><path
             id="path386"
             style="fill:#006048;fill-opacity:1;fill-rule:nonzero;stroke:none"
             d="m 0,0 c -34.053,-12.294 -71.55,-12.206 -107.358,-12.791 -18.641,-0.305 -37.285,0.001 -55.925,0.186 -18.347,0.181 -36.716,-0.15 -55.052,0.58 -18.109,0.718 -36.536,2.428 -54.246,6.353 -11.962,2.651 -23.334,7.286 -34.506,12.23 -11.351,5.022 -23.125,12.169 -31.32,21.552 -3.806,4.359 -7.148,9.161 -9.813,14.261 v -8.888 c 0,-44.658 36.202,-80.86 80.861,-80.86 h 242.945 c 43.037,0 78.208,33.626 80.705,76.036 C 39.167,16.373 19.673,7.103 0,0" /></g><g
           transform="translate(447.772,209.7373)"
           id="g388"><path
             id="path390"
             style="fill:#00d28a;fill-opacity:1;fill-rule:nonzero;stroke:none"
             d="m 0,0 c -1.647,-0.454 -3.287,-0.937 -4.908,-1.488 -1.085,-0.559 -2.15,-1.152 -3.196,-1.777 2.426,0.198 4.853,0.394 7.28,0.587 C -0.59,-1.773 -0.311,-0.881 0,0" /></g><g
           transform="translate(373.7959,255.5195)"
           id="g392"><path
             id="path394"
             style="fill:#00d28a;fill-opacity:1;fill-rule:nonzero;stroke:none"
             d="m 0,0 c 13.741,14.221 32.157,23.11 50.67,29.259 15.39,5.111 31.386,7.431 47.409,9.531 19.87,2.604 39.967,3.554 59.993,3.839 45.256,0.644 90.287,-3.173 135.419,-5.812 10.913,-0.638 21.858,-0.847 32.74,-1.948 11.226,-1.135 23.159,-2.118 33.758,-6.35 8.865,-3.541 16.434,-7.866 22.991,-13.777 -14.621,20.837 -38.81,34.467 -66.2,34.467 H 73.835 C 39.991,49.209 11.02,28.409 -1.035,-1.099 -0.691,-0.73 -0.35,-0.362 0,0" /></g><g
           transform="translate(405.1035,223.4053)"
           id="g396"><path
             id="path398"
             style="fill:#cacdcf;fill-opacity:1;fill-rule:nonzero;stroke:none"
             d="m 0,0 c 0,-5.846 -4.738,-10.584 -10.583,-10.584 -5.845,0 -10.584,4.738 -10.584,10.584 0,5.845 4.739,10.583 10.584,10.583 C -4.738,10.583 0,5.845 0,0" /></g><g
           transform="translate(752.2451,223.4053)"
           id="g400"><path
             id="path402"
             style="fill:#cacdcf;fill-opacity:1;fill-rule:nonzero;stroke:none"
             d="m 0,0 c 0,-5.846 -4.738,-10.584 -10.584,-10.584 -5.845,0 -10.583,4.738 -10.583,10.584 0,5.845 4.738,10.583 10.583,10.583 C -4.738,10.583 0,5.845 0,0" /></g><g
           transform="translate(385.4443,228.5322)"
           id="g404"><path
             id="path406"
             style="fill:#7d8083;fill-opacity:1;fill-rule:nonzero;stroke:none"
             d="m 0,0 c -0.442,0.733 2.191,-1.252 2.523,-1.488 1.326,-0.945 2.588,-1.986 3.873,-2.983 2.24,-1.738 4.591,-3.293 6.906,-4.927 1.244,-0.877 2.52,-1.729 3.797,-2.585 0.428,0.501 0.826,1.027 1.156,1.602 -2.417,2.017 -4.845,4.026 -7.103,6.214 C 8.281,-1.386 5.354,0.748 2.209,2.917 1.291,2.132 0.517,1.187 -0.091,0.136 -0.062,0.089 -0.029,0.048 0,0" /></g><g
           transform="translate(749.3047,226.6953)"
           id="g408"><path
             id="path410"
             style="fill:#7d8083;fill-opacity:1;fill-rule:nonzero;stroke:none"
             d="m 0,0 c -5.928,-1.828 -12.043,-3.226 -18.161,-4.391 0.079,-0.751 0.231,-1.479 0.458,-2.175 5.031,0.609 10.057,1.067 15.067,2.241 1.859,0.435 3.711,0.894 5.56,1.369 C 2.884,-1.686 2.61,-0.478 2.162,0.642 1.438,0.432 0.717,0.221 0,0" /></g><g
           transform="translate(457.377,230.5498)"
           id="g412"><path
             id="path414"
             style="fill:#1e120d;fill-opacity:1;fill-rule:nonzero;stroke:none"
             d="m 0,0 -0.113,-0.743 c -0.119,-0.545 -0.241,-1.097 -0.424,-1.663 -0.352,-1.133 -0.828,-2.297 -1.39,-3.462 -1.147,-2.326 -2.697,-4.609 -4.519,-6.624 -0.925,-0.992 -1.904,-1.94 -2.953,-2.748 -0.957,-0.76 -2.362,-1.647 -3.577,-2.482 -0.132,-0.085 -0.264,-0.168 -0.396,-0.253 l -0.523,35.872 c 2.98,-1.502 5.705,-3.16 7.936,-5.137 0.959,-0.849 1.817,-1.733 2.551,-2.658 0.743,-0.937 1.394,-1.947 1.923,-2.991 1.063,-2.09 1.618,-4.313 1.541,-6.352 z m 8.358,11.875 c -0.83,1.761 -1.833,3.411 -2.982,4.949 -1.16,1.551 -2.449,2.944 -3.789,4.197 -2.701,2.522 -5.671,4.528 -8.644,6.223 -2.986,1.707 -5.96,3.065 -8.93,4.374 -11.925,5.191 -24.826,8.798 -38.36,9.157 l -0.235,-12.104 c 3.636,-0.061 7.298,-0.419 10.951,-1.02 v -57.334 c -3.553,-0.395 -7.161,-0.495 -10.783,-0.377 l -0.102,-9.837 c 3.279,0.104 6.566,0.212 9.858,0.628 0.342,0.044 0.684,0.094 1.027,0.14 v -29.648 h 31 l -0.588,40.325 c 1.757,1.024 3.492,2.073 5.187,3.164 1.362,0.919 2.6,1.69 4.134,2.806 1.435,1.075 2.779,2.215 4.055,3.428 2.582,2.395 4.854,5.108 6.792,8.197 0.953,1.557 1.795,3.229 2.462,5.043 0.336,0.904 0.608,1.859 0.854,2.831 l 0.288,1.559 c 0.06,0.522 0.122,1.045 0.166,1.568 0.278,4.202 -0.711,8.225 -2.361,11.731" /></g><g
           transform="translate(544.5786,256.4395)"
           id="g416"><path
             id="path418"
             style="fill:#1e120d;fill-opacity:1;fill-rule:nonzero;stroke:none"
             d="M 0,0 V 14.886 H -68.833 V 0 H -58.5 V -51 H -68.833 V -61.833 H -58.5 v -22 H -68.833 V -94.667 H -58.5 -31.833 0 v 10.834 h -31.833 v 22 h 27 V -51 h -27 V 0 Z" /></g><g
           transform="translate(604.7334,243.3096)"
           id="g420"><path
             id="path422"
             style="fill:#1e120d;fill-opacity:1;fill-rule:nonzero;stroke:none"
             d="m 0,0 c 0.959,-0.849 1.817,-1.732 2.551,-2.658 0.744,-0.937 1.394,-1.946 1.924,-2.99 1.061,-2.09 1.617,-4.314 1.54,-6.353 L 5.959,-12.76 5.846,-13.503 C 5.727,-14.048 5.605,-14.6 5.423,-15.166 5.07,-16.299 4.594,-17.463 4.032,-18.628 2.886,-20.954 1.335,-23.236 -0.487,-25.252 -1.411,-26.244 -2.391,-27.191 -3.44,-28 c -0.957,-0.76 -2.362,-1.646 -3.577,-2.481 -0.131,-0.085 -0.264,-0.168 -0.396,-0.253 L -7.936,5.138 C -4.955,3.635 -2.231,1.978 0,0 m 32.012,-81.537 c 0,0 -17.333,21.667 -22.5,30.834 -2.97,5.27 -5.984,11.077 -8.01,15.065 0.185,0.131 0.364,0.254 0.559,0.396 1.435,1.075 2.78,2.216 4.055,3.429 2.582,2.394 4.855,5.107 6.792,8.196 0.953,1.557 1.795,3.229 2.462,5.043 0.336,0.904 0.608,1.859 0.854,2.831 l 0.289,1.559 c 0.059,0.522 0.121,1.045 0.165,1.568 0.278,4.202 -0.711,8.225 -2.362,11.731 -0.829,1.761 -1.832,3.411 -2.981,4.949 -1.159,1.551 -2.449,2.944 -3.789,4.197 -2.701,2.522 -5.671,4.528 -8.644,6.223 -2.986,1.707 -5.96,3.065 -8.93,4.374 -11.925,5.191 -24.826,8.798 -38.36,9.158 l -0.235,-12.105 c 3.636,-0.06 7.299,-0.419 10.951,-1.019 v -57.334 c -3.552,-0.396 -7.16,-0.496 -10.783,-0.377 l -0.102,-9.838 c 3.28,0.104 6.566,0.213 9.858,0.629 0.342,0.044 0.684,0.093 1.027,0.139 v -29.648 h 30.999 l -0.567,38.96 c 5.726,-11.29 20.419,-38.96 20.419,-38.96 z" /></g><g
           transform="translate(697.2451,216.5488)"
           id="g424"><path
             id="path426"
             style="fill:#1e120d;fill-opacity:1;fill-rule:nonzero;stroke:none"
             d="M 0,0 C 13.345,14.304 38.167,54.776 38.167,54.776 H 21.334 c 0,0 -17.771,-32.398 -38.475,-50.569 l -0.692,50.569 h -28.5 V -17.606 C -52.263,-21.948 -55,-23.942 -55,-23.942 v -6.167 -12.667 c 0,0 3.445,2.355 8.667,6.047 v -18.047 h 30 l -0.477,34.78 28.144,-34.78 h 18.333 c 0,0 -29.798,36.22 -37.978,46.982 C -5.006,-4.949 -2.138,-2.292 0,0" /></g><g
           transform="translate(466.4014,238.9316)"
           id="g428"><path
             id="path430"
             style="fill:#f2f2f2;fill-opacity:1;fill-rule:nonzero;stroke:none"
             d="m 0,0 -0.113,-0.743 c -0.119,-0.544 -0.24,-1.097 -0.423,-1.663 -0.353,-1.133 -0.829,-2.297 -1.39,-3.462 -1.147,-2.326 -2.698,-4.609 -4.52,-6.624 -0.925,-0.992 -1.904,-1.94 -2.953,-2.747 -0.957,-0.761 -2.362,-1.648 -3.577,-2.482 -0.131,-0.086 -0.264,-0.168 -0.396,-0.254 l -0.523,35.873 c 2.981,-1.502 5.705,-3.16 7.936,-5.138 0.959,-0.849 1.818,-1.732 2.551,-2.658 0.744,-0.937 1.394,-1.946 1.924,-2.991 1.062,-2.089 1.617,-4.312 1.54,-6.352 z m 8.358,11.875 c -0.83,1.761 -1.832,3.412 -2.982,4.949 -1.159,1.552 -2.449,2.944 -3.789,4.197 -2.701,2.522 -5.671,4.528 -8.644,6.223 -2.986,1.708 -5.959,3.066 -8.93,4.374 -11.925,5.191 -24.826,8.799 -38.36,9.157 l -0.235,-12.104 c 3.636,-0.06 7.299,-0.418 10.951,-1.02 v -57.334 c -3.552,-0.394 -7.16,-0.495 -10.783,-0.377 l -0.102,-9.836 c 3.28,0.103 6.566,0.212 9.858,0.628 0.343,0.044 0.685,0.094 1.027,0.14 v -29.648 h 31 l -0.588,40.324 c 1.757,1.025 3.492,2.073 5.187,3.165 1.362,0.919 2.6,1.69 4.134,2.805 1.435,1.075 2.78,2.215 4.056,3.429 2.581,2.394 4.854,5.107 6.791,8.197 0.954,1.556 1.795,3.229 2.463,5.042 0.335,0.904 0.607,1.86 0.853,2.831 l 0.289,1.559 c 0.059,0.522 0.121,1.045 0.165,1.569 0.279,4.202 -0.711,8.224 -2.361,11.73" /></g><g
           transform="translate(553.6035,264.8213)"
           id="g432"><path
             id="path434"
             style="fill:#f2f2f2;fill-opacity:1;fill-rule:nonzero;stroke:none"
             d="M 0,0 V 14.886 H -68.833 V 0 H -58.5 V -51 H -68.833 V -61.833 H -58.5 v -22 H -68.833 V -94.666 H -58.5 -31.833 0 v 10.833 h -31.833 v 22 h 27 V -51 h -27 V 0 Z" /></g><g
           transform="translate(613.7578,251.6914)"
           id="g436"><path
             id="path438"
             style="fill:#f2f2f2;fill-opacity:1;fill-rule:nonzero;stroke:none"
             d="m 0,0 c 0.959,-0.849 1.818,-1.731 2.551,-2.658 0.744,-0.937 1.394,-1.946 1.924,-2.99 1.062,-2.089 1.617,-4.313 1.54,-6.353 L 5.959,-12.76 5.846,-13.503 c -0.119,-0.544 -0.24,-1.097 -0.423,-1.663 -0.353,-1.133 -0.829,-2.297 -1.39,-3.462 -1.147,-2.326 -2.698,-4.608 -4.52,-6.624 -0.924,-0.992 -1.904,-1.939 -2.953,-2.747 -0.957,-0.761 -2.362,-1.647 -3.577,-2.481 -0.131,-0.086 -0.264,-0.168 -0.395,-0.254 L -7.936,5.139 C -4.955,3.636 -2.23,1.979 0,0 m 32.013,-81.536 c 0,0 -17.334,21.666 -22.5,30.833 -2.971,5.27 -5.985,11.077 -8.011,15.065 0.185,0.132 0.364,0.254 0.56,0.396 1.434,1.075 2.779,2.216 4.054,3.43 2.582,2.393 4.855,5.106 6.792,8.196 0.953,1.556 1.795,3.229 2.462,5.042 0.336,0.904 0.609,1.86 0.855,2.831 l 0.288,1.559 c 0.059,0.522 0.121,1.045 0.165,1.569 0.278,4.202 -0.71,8.224 -2.361,11.73 -0.83,1.761 -1.833,3.412 -2.982,4.949 -1.159,1.552 -2.448,2.944 -3.789,4.197 -2.701,2.522 -5.671,4.528 -8.644,6.223 -2.986,1.708 -5.96,3.066 -8.93,4.374 -11.925,5.191 -24.826,8.799 -38.36,9.158 l -0.235,-12.105 c 3.637,-0.059 7.299,-0.418 10.951,-1.019 v -57.334 c -3.552,-0.395 -7.16,-0.496 -10.782,-0.377 l -0.103,-9.837 c 3.28,0.103 6.567,0.213 9.859,0.629 0.342,0.044 0.683,0.093 1.026,0.139 v -29.648 h 31 l -0.568,38.959 c 5.726,-11.29 20.419,-38.959 20.419,-38.959 z" /></g><g
           transform="translate(706.2705,224.9307)"
           id="g440"><path
             id="path442"
             style="fill:#f2f2f2;fill-opacity:1;fill-rule:nonzero;stroke:none"
             d="M 0,0 C 13.344,14.305 38.166,54.776 38.166,54.776 H 21.333 c 0,0 -17.771,-32.398 -38.475,-50.569 l -0.692,50.569 h -28.5 V -17.606 C -52.264,-21.947 -55,-23.942 -55,-23.942 v -6.167 -12.666 c 0,0 3.445,2.354 8.666,6.046 v -18.046 h 30 l -0.476,34.78 28.143,-34.78 h 18.333 c 0,0 -29.798,36.219 -37.977,46.982 C -5.007,-4.948 -2.139,-2.292 0,0" /></g><g
           transform="translate(411.9111,201.4844)"
           id="g444"><path
             id="path446"
             style="fill:#b0b8be;fill-opacity:1;fill-rule:nonzero;stroke:none"
             d="m 0,0 -0.025,-2.449 c 3.279,0.103 6.566,0.213 9.858,0.629 0.342,0.044 0.684,0.093 1.026,0.139 v -29.648 h 31 L 41.338,4.381 C 27.564,2.813 13.824,0.908 0,0" /></g><g
           transform="translate(521.77,202.9883)"
           id="g448"><path
             id="path450"
             style="fill:#b0b8be;fill-opacity:1;fill-rule:nonzero;stroke:none"
             d="M 0,0 H 27 V 3.79 C 24.113,3.9 21.227,4.011 18.34,4.118 -0.037,4.801 -18.566,5.756 -37,5.261 V 0 h 10.333 V -22 H -37 V -32.833 H 31.833 V -22 H 0 Z" /></g><g
           transform="translate(565.2754,206.1494)"
           id="g452"><path
             id="path454"
             style="fill:#b0b8be;fill-opacity:1;fill-rule:nonzero;stroke:none"
             d="m 0,0 -0.074,-7.114 c 3.279,0.103 6.566,0.213 9.858,0.629 0.342,0.044 0.684,0.093 1.027,0.139 v -29.648 h 31 L 41.302,-1.118 C 27.53,-0.952 13.764,-0.512 0,0" /></g><g
           transform="translate(621.0498,205.0059)"
           id="g456"><path
             id="path458"
             style="fill:#b0b8be;fill-opacity:1;fill-rule:nonzero;stroke:none"
             d="m 0,0 c -2.405,-0.034 -4.811,-0.054 -7.219,-0.043 -1.737,0.008 -3.474,0.031 -5.211,0.049 6.581,-12.756 18.317,-34.857 18.317,-34.857 h 18.834 c 0,0 -17.334,21.666 -22.5,30.833 C 1.478,-2.699 0.732,-1.348 0,0" /></g><g
           transform="translate(687.8828,211.3203)"
           id="g460"><path
             id="path462"
             style="fill:#b0b8be;fill-opacity:1;fill-rule:nonzero;stroke:none"
             d="m 0,0 c -9.292,-1.565 -18.606,-2.872 -27.946,-3.887 v -0.109 c -5.93,-4.341 -8.666,-6.336 -8.666,-6.336 v -18.833 c 0,0 3.445,2.354 8.666,6.047 v -18.047 h 30 l -0.476,34.78 28.143,-34.78 h 18.333 c 0,0 -24.711,30.037 -35.302,43.529 C 8.515,1.513 4.266,0.719 0,0" /></g><g
           transform="translate(442.0029,188.7764)"
           id="g464"><path
             id="path466"
             style="fill:#b7c2c8;fill-opacity:1;fill-rule:nonzero;stroke:none"
             d="m 0,0 c -6.453,-1.381 -12.859,-2.956 -19.233,-4.656 v -13.965 h 31 L 11.463,2.237 C 7.629,1.56 3.807,0.814 0,0" /></g><g
           transform="translate(521.77,192.9268)"
           id="g468"><path
             id="path470"
             style="fill:#b7c2c8;fill-opacity:1;fill-rule:nonzero;stroke:none"
             d="M 0,0 C -8.876,0.774 -17.764,1.294 -26.667,1.388 V -11.938 H -37 v -10.833 h 68.833 v 10.833 H 0 Z" /></g><g
           transform="translate(576.0859,186.7178)"
           id="g472"><path
             id="path474"
             style="fill:#b7c2c8;fill-opacity:1;fill-rule:nonzero;stroke:none"
             d="M 0,0 V -16.562 H 31 L 30.796,-2.587 C 20.509,-2.089 10.246,-1.141 0,0" /></g><g
           transform="translate(628.5371,183.8428)"
           id="g476"><path
             id="path478"
             style="fill:#b7c2c8;fill-opacity:1;fill-rule:nonzero;stroke:none"
             d="m 0,0 c -2.936,-0.079 -5.868,-0.099 -8.799,-0.079 3.996,-7.577 7.198,-13.609 7.198,-13.609 h 18.834 c 0,0 -5.222,6.53 -10.788,13.934 C 4.296,0.145 2.146,0.058 0,0" /></g><g
           transform="translate(659.9365,186.2461)"
           id="g480"><path
             id="path482"
             style="fill:#b7c2c8;fill-opacity:1;fill-rule:nonzero;stroke:none"
             d="M 0,0 V -16.091 H 30 L 29.709,5.159 C 19.91,2.984 9.982,1.258 0,0" /></g><g
           transform="translate(651.2705,185.2705)"
           id="g484"><path
             id="path486"
             style="fill:#b7c2c8;fill-opacity:1;fill-rule:nonzero;stroke:none"
             d="m 0,0 v -3.115 c 0,0 2.022,1.383 5.312,3.686 C 3.542,0.366 1.771,0.175 0,0" /></g><g
           transform="translate(701.1602,194.1758)"
           id="g488"><path
             id="path490"
             style="fill:#b7c2c8;fill-opacity:1;fill-rule:nonzero;stroke:none"
             d="m 0,0 c -0.826,-0.215 -1.656,-0.42 -2.484,-0.629 l 18.927,-23.392 h 18.333 c 0,0 -11.716,14.244 -22.472,27.519 C 8.22,2.248 4.117,1.075 0,0" /></g><g
           transform="translate(330.3359,413.7266)"
           id="g492"><path
             id="path494"
             style="fill:none;stroke:#000000;stroke-width:7;stroke-linecap:butt;stroke-linejoin:miter;stroke-miterlimit:10;stroke-dasharray:none;stroke-opacity:1"
             d="m 0,0 71.69,-107.018 c 0,0 47.097,45.516 155.601,47.328 108.503,1.813 183.79,-47.74 183.79,-47.74 l 49.5,114.736 c 0,0 -77.748,89.565 -233.445,86.093 C 71.439,89.928 0,0 0,0 Z" /></g></g></g></g></svg>